<svg width="97" height="97" viewBox="0 0 97 97" fill="none" xmlns="http://www.w3.org/2000/svg">
<circle cx="48.005" cy="48.005" r="48.005" fill="#FFF19F"/>
<circle cx="48.5" cy="48.5" r="35.5" fill="#C6F8E3" fill-opacity="0.6"/>
<path d="M42.9839 41.3644C42.5972 41.2332 42.1868 41.1861 41.7804 41.2265C41.3739 41.2668 40.9808 41.3935 40.6273 41.5982L14.4145 56.7818C14.4048 56.7874 14.3952 56.7931 14.3856 56.7991C13.0589 57.6158 12.6354 59.1279 13.3312 60.5618C14.1992 62.3493 17.274 64.0321 20.9827 64.7493C22.3331 65.008 23.7052 65.1373 25.0802 65.1353C28.0324 65.1353 31.6564 64.5542 35.6694 62.6829C38.7865 61.2297 41.7504 58.0557 43.5982 54.1915C45.5449 50.1206 45.9304 46.0141 44.656 42.9249C44.5046 42.5606 44.2771 42.233 43.9887 41.9638C43.7003 41.6947 43.3577 41.4903 42.9839 41.3644Z" fill="#7FE6DB"/>
<path d="M83.6146 56.7991C83.605 56.7931 83.5953 56.7874 83.5856 56.7818L57.3734 41.5982C57.02 41.3935 56.6269 41.2667 56.2204 41.2264C55.814 41.186 55.4036 41.2331 55.0168 41.3644C54.6429 41.4902 54.3002 41.6946 54.0117 41.9637C53.7232 42.2329 53.4956 42.5606 53.3443 42.925C52.0698 46.014 52.4544 50.1206 54.4021 54.1915C56.2497 58.0552 59.2135 61.2294 62.3297 62.6829C66.3434 64.5541 69.9669 65.1353 72.9191 65.1353C74.2941 65.1373 75.6661 65.008 77.0165 64.7493C80.7253 64.032 83.8001 62.3493 84.6678 60.5621C85.3649 59.1283 84.9414 57.616 83.6146 56.7991Z" fill="#7FE6DB"/>
<path fill-rule="evenodd" clip-rule="evenodd" d="M38.3027 20.2541C38.3027 19.5615 38.8642 19 39.5568 19C41.7249 19 43.8041 19.8613 45.3371 21.3943C46.8701 22.9273 47.7314 25.0065 47.7314 27.1745C47.7314 27.8671 47.1699 28.4286 46.4773 28.4286C45.7847 28.4286 45.2232 27.8671 45.2232 27.1745C45.2232 25.6717 44.6262 24.2305 43.5636 23.1678C42.5009 22.1052 41.0596 21.5082 39.5568 21.5082C38.8642 21.5082 38.3027 20.9467 38.3027 20.2541Z" fill="#475459"/>
<path fill-rule="evenodd" clip-rule="evenodd" d="M58.6016 21.5082C57.8575 21.5082 57.1206 21.6548 56.4331 21.9396C55.7457 22.2243 55.1211 22.6417 54.5949 23.1678C54.0688 23.694 53.6514 24.3186 53.3667 25.0061C53.082 25.6935 52.9354 26.4303 52.9355 27.1744C52.9355 27.8671 52.374 28.4286 51.6814 28.4286C50.9888 28.4286 50.4273 27.8671 50.4272 27.1745C50.4272 26.1011 50.6386 25.0381 51.0494 24.0463C51.4602 23.0545 52.0623 22.1534 52.8213 21.3943C53.5804 20.6352 54.4815 20.0331 55.4733 19.6223C56.465 19.2115 57.5281 19 58.6016 19C59.2942 19 59.8557 19.5615 59.8557 20.2541C59.8557 20.9467 59.2942 21.5082 58.6016 21.5082Z" fill="#475459"/>
<path d="M61.3647 62.9133H34.2725L46.5796 70.0158C47.3156 70.4426 48.1512 70.6677 49.002 70.6682C49.8528 70.6686 50.6887 70.4446 51.4252 70.0186L63.7373 62.9129L61.3647 62.9133Z" fill="#475459"/>
<path d="M65.1619 47.2262H31.585V55.3663H66.416V47.2262H65.1619Z" fill="#475459"/>
<path d="M63.9994 39.8546L63.6953 39.679H34.3145L34.0089 39.8555C33.2743 40.2809 32.6639 40.8913 32.2387 41.626C31.8135 42.3607 31.5883 43.194 31.5854 44.0428V47.2262H66.4164V44.0433C66.4133 43.1951 66.1887 42.3623 65.7648 41.6276C65.3409 40.8929 64.7323 40.2817 63.9994 39.8546Z" fill="#FFDD0F"/>
<path d="M65.1619 55.3661H31.585V58.5653C31.587 59.4158 31.812 60.2509 32.2375 60.9873C32.663 61.7237 33.2741 62.3358 34.0099 62.7623L34.2723 62.9139H63.7372L64.0045 62.7595C64.7367 62.3309 65.3442 61.7185 65.767 60.983C66.1898 60.2475 66.4132 59.4143 66.4152 58.566V55.3668L65.1619 55.3661Z" fill="#FFDD0F"/>
<path d="M51.4263 32.5984C50.6907 32.1722 49.8556 31.9477 49.0054 31.9475C48.1553 31.9474 47.3201 32.1716 46.5844 32.5976L34.314 39.6791H63.6956L51.4263 32.5984Z" fill="#475459"/>
</svg>
