<svg width="26" height="26" viewBox="0 0 26 26" fill="none" xmlns="http://www.w3.org/2000/svg">
<g clip-path="url(#clip0)">
<path d="M5.93667 10.9298L7.65158 9.34376C9.66008 10.3144 10.9319 11.0533 13.1874 12.662C17.4298 7.84984 20.2323 5.40801 25.441 2.16668L26 3.45151C21.7046 7.19984 18.5575 11.375 14.0281 19.5C11.2342 16.2088 9.36867 14.1115 5.93667 10.9298V10.9298ZM21.5442 11.5332C21.6168 12.0131 21.6667 12.5006 21.6667 13C21.6667 18.3755 17.2922 22.75 11.9167 22.75C6.54117 22.75 2.16667 18.3755 2.16667 13C2.16667 7.62451 6.54117 3.25001 11.9167 3.25001C14.0519 3.25001 16.0225 3.94768 17.6302 5.11659C18.1946 4.63343 18.7698 4.16218 19.3635 3.70501C17.3225 2.06809 14.7366 1.08334 11.9167 1.08334C5.33542 1.08334 0 6.41876 0 13C0 19.5813 5.33542 24.9167 11.9167 24.9167C18.4979 24.9167 23.8333 19.5813 23.8333 13C23.8333 11.7228 23.6275 10.4943 23.2548 9.34051C22.6828 10.0263 22.1152 10.7543 21.5442 11.5332V11.5332Z" fill="white"/>
</g>
<defs>
<clipPath id="clip0">
<rect width="26" height="26" fill="white"/>
</clipPath>
</defs>
</svg>
