<svg width="24" height="24" viewBox="0 0 24 24" fill="none" xmlns="http://www.w3.org/2000/svg">
<g clip-path="url(#clip0)">
<path d="M5.48 10.089L7.063 8.625C8.917 9.521 10.091 10.203 12.173 11.688C16.089 7.246 18.676 4.992 23.484 2L24 3.186C20.035 6.646 17.13 10.5 12.949 18C10.37 14.962 8.648 13.026 5.48 10.089ZM19.887 10.646C19.954 11.089 20 11.539 20 12C20 16.962 15.962 21 11 21C6.038 21 2 16.962 2 12C2 7.038 6.038 3 11 3C12.971 3 14.79 3.644 16.274 4.723C16.795 4.277 17.326 3.842 17.874 3.42C15.99 1.909 13.603 1 11 1C4.925 1 0 5.925 0 12C0 18.075 4.925 23 11 23C17.075 23 22 18.075 22 12C22 10.821 21.81 9.687 21.466 8.622C20.938 9.255 20.414 9.927 19.887 10.646Z" fill="#333333"/>
</g>
<defs>
<clipPath id="clip0">
<rect width="24" height="24" fill="white"/>
</clipPath>
</defs>
</svg>
