<svg width="28" height="28" viewBox="0 0 28 28" fill="none" xmlns="http://www.w3.org/2000/svg">
<g clip-path="url(#clip0)">
<path d="M15.3548 19.4193H22.129V27.5484H14V16.7097L15.3548 19.4193Z" fill="#D3A06C"/>
<path d="M13.9999 27.5484H5.87085V19.4193H12.645L13.9999 16.7097V27.5484Z" fill="#D3A06C"/>
<path d="M22.129 16.7097L23.4839 19.4193H15.3548L14 16.7097H22.129Z" fill="#DFB28B"/>
<path d="M14 16.7097L12.6451 19.4193H4.51611L5.87095 16.7097H14Z" fill="#DFB28B"/>
<path d="M21.2258 8.58063L22.1291 10.3871C21.2303 10.9878 20.4311 11.7194 19.7581 12.5638L18.9678 13.5484L19.1393 12.1754C19.2297 11.4619 19.4646 10.7754 19.8168 10.1657C20.1691 9.55618 20.6479 9.01416 21.2258 8.58063Z" fill="#FCD770"/>
<path d="M8.86058 12.1754L9.03214 13.5484L8.24182 12.5638C7.56881 11.7194 6.76967 10.9878 5.87085 10.3871L6.77408 8.58063C7.35204 9.01416 7.83078 9.55618 8.18316 10.1657C8.53532 10.7754 8.77017 11.4619 8.86058 12.1754Z" fill="#FCD770"/>
<path d="M25.7419 7.35678L25.2903 8.12902L25.2226 9.03225L24.3871 8.81989L23.5515 9.03225L23.4838 8.12902L23.0322 7.35678L23.827 7.01344L24.3871 6.32257L24.9472 7.01344L25.7419 7.35678Z" fill="#FF826E"/>
<path d="M16.7096 3.42328L15.8064 4.96776L15.6754 6.77421L14 6.34972L12.3245 6.77421L12.1935 4.96776L11.2903 3.42328L12.8844 2.73682L14 1.35486L15.1155 2.73682L16.7096 3.42328Z" fill="#FF826E"/>
<path d="M4.96773 7.35678L4.51612 8.12902L4.44842 9.03225L3.6129 8.81989L2.77737 9.03225L2.70967 8.12902L2.25806 7.35678L3.05279 7.01344L3.6129 6.32257L4.173 7.01344L4.96773 7.35678Z" fill="#FF826E"/>
<path d="M22.4083 16.2581H5.59185L3.7854 19.871H5.41941V28H22.5807V19.871H24.2147L22.4083 16.2581ZM21.8499 17.1613L22.7531 18.9677H15.6341L14.7308 17.1613H21.8499ZM6.15019 17.1613H13.2693L12.366 18.9677H5.24697L6.15019 17.1613ZM21.6775 27.0968H14.4517V23.9355H13.5484V27.0968H6.32264V19.871H12.9244L13.5484 18.6226V22.5806H14.4517V18.6226L15.0757 19.871H21.6775V27.0968Z" fill="black"/>
<path d="M7.22583 23.4839H9.93551V24.3871H7.22583V23.4839Z" fill="black"/>
<path d="M7.22583 25.2903H9.93551V26.1936H7.22583V25.2903Z" fill="black"/>
<path d="M10.8386 25.2903H11.7418V26.1936H10.8386V25.2903Z" fill="black"/>
<path d="M11.9145 7.3451L14.0001 6.81344L16.0858 7.34466L16.2492 5.10512L17.357 3.21267L15.3975 2.36457L14.0001 0.636841L12.6023 2.36457L10.6428 3.21267L11.7507 5.10512L11.9145 7.3451ZM13.1651 3.10483L14.0001 2.07283L14.8352 3.10528L16.0626 3.63694L15.364 4.83036L15.2637 6.20372L14.0001 5.88177L12.7366 6.20328L12.6363 4.82992L11.9377 3.63627L13.1651 3.10483Z" fill="black"/>
<path d="M4.95868 8.26688L5.61493 7.14645L4.45238 6.64279L3.61289 5.60461L2.77339 6.64235L1.61084 7.14601L2.26709 8.26644L2.36412 9.60275L3.61289 9.28521L4.8621 9.6032L4.95868 8.26688ZM4.07354 7.99124L4.03914 8.46137L3.61289 8.3531L3.18707 8.46137L3.15223 7.99124L2.90526 7.56895L3.3357 7.38262L3.61289 7.0406L3.88963 7.38306L4.32008 7.56962L4.07354 7.99124Z" fill="black"/>
<path d="M25.7329 8.26688L26.3891 7.14645L25.2266 6.64279L24.3871 5.60461L23.5476 6.64235L22.385 7.14601L23.0413 8.26644L23.1383 9.60275L24.3871 9.28521L25.6363 9.6032L25.7329 8.26688ZM24.8477 7.99124L24.8133 8.46137L24.3871 8.3531L23.9612 8.46137L23.9268 7.99124L23.6799 7.56895L24.1103 7.38262L24.3871 7.0406L24.6638 7.38306L25.0942 7.56962L24.8477 7.99124Z" fill="black"/>
<path d="M5.6202 10.7629C6.48021 11.3364 7.24429 12.0363 7.88973 12.8439L9.67855 15.079L9.30852 12.1199C9.11535 10.575 8.29019 9.15291 7.04472 8.21903L6.61208 7.89465L5.28833 10.5415L5.6202 10.7629ZM6.9219 9.29514C7.68554 10.0178 8.20353 10.9796 8.38104 12.0203C7.81057 11.3503 7.16336 10.7534 6.45 10.2389L6.9219 9.29514Z" fill="black"/>
<path d="M18.6916 12.1199L18.3215 15.079L20.1103 12.8434C20.7562 12.0359 21.5199 11.3359 22.3799 10.7624L22.7113 10.541L21.3876 7.89417L20.9549 8.21942C19.7099 9.1533 18.8843 10.575 18.6916 12.1199V12.1199ZM21.5501 10.2389C20.8367 10.7534 20.1891 11.3498 19.619 12.0202C19.797 10.9796 20.3145 10.0177 21.0782 9.29509L21.5501 10.2389Z" fill="black"/>
<path d="M15.8064 15.3548H16.7096V13.4626C16.7096 11.2934 17.4741 9.18176 18.8634 7.51489L18.1692 6.93671C16.6455 8.76543 15.8064 11.083 15.8064 13.4626V15.3548Z" fill="black"/>
<path d="M18.9678 5.41937H19.871V6.3226H18.9678V5.41937Z" fill="black"/>
<path d="M20.3225 3.61292H21.2257V4.51614H20.3225V3.61292Z" fill="black"/>
<path d="M11.2903 15.3548H12.1935V13.4626C12.1935 11.0826 11.3545 8.76543 9.83114 6.93671L9.13696 7.51489C10.5258 9.18176 11.2903 11.2934 11.2903 13.4626V15.3548Z" fill="black"/>
<path d="M8.12915 5.41937H9.03238V6.3226H8.12915V5.41937Z" fill="black"/>
<path d="M6.77417 3.61292H7.6774V4.51614H6.77417V3.61292Z" fill="black"/>
<path d="M13.5483 7.67743H14.4516V8.58065H13.5483V7.67743Z" fill="black"/>
<path d="M13.5483 9.48389H14.4516V15.3549H13.5483V9.48389Z" fill="black"/>
<path d="M26.1936 12.1935H27.0968V13.0968H26.1936V12.1935Z" fill="black"/>
<path d="M26.1936 14H27.0968V14.9032H26.1936V14Z" fill="black"/>
<path d="M27.0969 13.0968H28.0001V14H27.0969V13.0968Z" fill="black"/>
<path d="M25.2903 13.0968H26.1935V14H25.2903V13.0968Z" fill="black"/>
<path d="M24.8386 0H25.7418V0.903226H24.8386V0Z" fill="black"/>
<path d="M24.8386 1.80646H25.7418V2.70968H24.8386V1.80646Z" fill="black"/>
<path d="M25.7419 0.903198H26.6452V1.80642H25.7419V0.903198Z" fill="black"/>
<path d="M23.9355 0.903198H24.8388V1.80642H23.9355V0.903198Z" fill="black"/>
<path d="M0.903076 14H1.8063V14.9032H0.903076V14Z" fill="black"/>
<path d="M0.903076 15.8065H1.8063V16.7097H0.903076V15.8065Z" fill="black"/>
<path d="M1.8064 14.9032H2.70962V15.8064H1.8064V14.9032Z" fill="black"/>
<path d="M0 14.9032H0.903226V15.8064H0V14.9032Z" fill="black"/>
<path d="M0.903076 0H1.8063V0.903226H0.903076V0Z" fill="black"/>
<path d="M0.903076 1.80646H1.8063V2.70968H0.903076V1.80646Z" fill="black"/>
<path d="M1.8064 0.903198H2.70962V1.80642H1.8064V0.903198Z" fill="black"/>
<path d="M0 0.903198H0.903226V1.80642H0V0.903198Z" fill="black"/>
</g>
<defs>
<clipPath id="clip0">
<rect width="28" height="28" fill="white"/>
</clipPath>
</defs>
</svg>
