<svg width="27" height="27" viewBox="0 0 27 27" fill="none" xmlns="http://www.w3.org/2000/svg">
<path fill-rule="evenodd" clip-rule="evenodd" d="M13.5 0C6.04463 0 0 6.04463 0 13.5C0 20.9554 6.04463 27 13.5 27C20.9554 27 27 20.9554 27 13.5C27 6.04463 20.9554 0 13.5 0ZM13.5 2.25C19.7032 2.25 24.75 7.29675 24.75 13.5C24.75 19.7032 19.7032 24.75 13.5 24.75C7.29675 24.75 2.25 19.7032 2.25 13.5C2.25 7.29675 7.29675 2.25 13.5 2.25ZM16.632 19.782H8.9775C8.21475 19.782 7.59375 19.161 7.59375 18.3915V9.2655C7.59375 8.496 8.21475 7.875 8.9775 7.875H18.0225C18.7853 7.875 19.4062 8.496 19.4062 9.2655V21.375L17.955 20.0925L17.1383 19.3365L16.2742 18.5333L16.632 19.782V19.782ZM15.417 16.6905C16.9088 16.6433 17.4825 15.6645 17.4825 15.6645C17.4825 13.491 16.5105 11.7292 16.5105 11.7292C15.5385 11.0002 14.6137 11.0205 14.6137 11.0205L14.5193 11.1285C15.6668 11.4795 16.2 11.9858 16.2 11.9858C15.498 11.601 14.8095 11.412 14.1682 11.3378C13.6822 11.2838 13.2165 11.2973 12.8047 11.3513L12.69 11.3648C12.4537 11.385 11.88 11.4727 11.1578 11.79L10.7595 11.9858C10.7595 11.9858 11.3198 11.4525 12.5348 11.1015L12.4672 11.0205C12.4672 11.0205 11.5425 11.0002 10.5705 11.7292C10.5705 11.7292 9.5985 13.491 9.5985 15.6645C9.5985 15.6645 10.1655 16.6433 11.6573 16.6905L12.1095 16.1303C11.2522 15.8738 10.9282 15.3338 10.9282 15.3338L11.1172 15.4485L11.1443 15.4688L11.1713 15.4834L11.178 15.4879L11.205 15.5025C11.3738 15.597 11.5425 15.6713 11.6977 15.732C11.9745 15.84 12.3052 15.948 12.69 16.0222C13.1962 16.1167 13.7902 16.1505 14.4382 16.029C14.7555 15.975 15.0795 15.8805 15.417 15.7387C15.6533 15.651 15.9165 15.5227 16.1933 15.3405C16.1933 15.3405 15.8557 15.894 14.9715 16.1438L15.417 16.6905V16.6905ZM12.2782 13.5383C11.8935 13.5383 11.5898 13.8757 11.5898 14.2875C11.5898 14.6992 11.9002 15.0368 12.2782 15.0368C12.663 15.0368 12.9668 14.6992 12.9668 14.2875C12.9735 13.8757 12.663 13.5383 12.2782 13.5383ZM14.742 13.5383C14.3573 13.5383 14.0535 13.8757 14.0535 14.2875C14.0535 14.6992 14.364 15.0368 14.742 15.0368C15.1268 15.0368 15.4305 14.6992 15.4305 14.2875C15.4305 13.8757 15.1268 13.5383 14.742 13.5383Z" fill="white"/>
</svg>
