<svg width="97" height="97" viewBox="0 0 97 97" fill="none" xmlns="http://www.w3.org/2000/svg">
<circle cx="48.005" cy="48.005" r="48.005" fill="#9691FA" fill-opacity="0.3"/>
<circle cx="48.5" cy="48.5" r="36.5" fill="#9691FA" fill-opacity="0.3"/>
<path d="M70.6201 19.27C70.4106 19.27 70.2096 19.3533 70.0615 19.5014C69.9133 19.6496 69.8301 19.8505 69.8301 20.06C69.8301 20.2695 69.9133 20.4705 70.0615 20.6186C70.2096 20.7668 70.4106 20.85 70.6201 20.85C70.8296 20.85 71.0305 20.7668 71.1787 20.6186C71.3269 20.4705 71.4101 20.2695 71.4101 20.06C71.4101 19.8505 71.3269 19.6496 71.1787 19.5014C71.0305 19.3533 70.8296 19.27 70.6201 19.27Z" fill="#F1BC19"/>
<path d="M48.5 18.48C40.5382 18.48 32.9025 21.6428 27.2726 27.2726C21.6428 32.9025 18.48 40.5382 18.48 48.5C18.48 56.4618 21.6428 64.0975 27.2726 69.7273C32.9025 75.3572 40.5382 78.52 48.5 78.52C56.4618 78.52 64.0975 75.3572 69.7273 69.7273C75.3572 64.0975 78.52 56.4618 78.52 48.5C78.52 40.5382 75.3572 32.9025 69.7273 27.2726C64.0975 21.6428 56.4618 18.48 48.5 18.48Z" fill="#7289DA"/>
<path d="M75.3599 18.48C74.5219 18.48 73.7181 18.8129 73.1255 19.4055C72.5329 19.9981 72.2 20.8019 72.2 21.64C72.2 22.4781 72.5329 23.2818 73.1255 23.8744C73.7181 24.4671 74.5219 24.8 75.3599 24.8C76.198 24.8 77.0018 24.4671 77.5944 23.8744C78.187 23.2818 78.5199 22.4781 78.5199 21.64C78.5199 20.8019 78.187 19.9981 77.5944 19.4055C77.0018 18.8129 76.198 18.48 75.3599 18.48V18.48Z" fill="#F1BC19"/>
<path d="M20.06 27.96C19.6409 27.96 19.2391 28.1265 18.9428 28.4228C18.6464 28.7191 18.48 29.121 18.48 29.54C18.48 29.9591 18.6464 30.3609 18.9428 30.6573C19.2391 30.9536 19.6409 31.12 20.06 31.12C20.479 31.12 20.8809 30.9536 21.1772 30.6573C21.4735 30.3609 21.64 29.9591 21.64 29.54C21.64 29.121 21.4735 28.7191 21.1772 28.4228C20.8809 28.1265 20.479 27.96 20.06 27.96Z" fill="#EE3E54"/>
<path d="M70.62 68.25C70.201 68.25 69.7991 68.4165 69.5028 68.7128C69.2065 69.0091 69.04 69.411 69.04 69.83C69.04 70.2491 69.2065 70.6509 69.5028 70.9472C69.7991 71.2436 70.201 71.41 70.62 71.41C71.0391 71.41 71.4409 71.2436 71.7373 70.9472C72.0336 70.6509 72.2 70.2491 72.2 69.83C72.2 69.411 72.0336 69.0091 71.7373 68.7128C71.4409 68.4165 71.0391 68.25 70.62 68.25ZM22.43 67.46C21.5919 67.46 20.7882 67.7929 20.1956 68.3856C19.6029 68.9782 19.27 69.7819 19.27 70.62C19.27 71.4581 19.6029 72.2619 20.1956 72.8545C20.7882 73.4471 21.5919 73.78 22.43 73.78C23.2681 73.78 24.0719 73.4471 24.6645 72.8545C25.2571 72.2619 25.59 71.4581 25.59 70.62C25.59 69.7819 25.2571 68.9782 24.6645 68.3856C24.0719 67.7929 23.2681 67.46 22.43 67.46Z" fill="#FBCD59"/>
<path d="M27.9601 72.99C27.5411 72.99 27.1392 73.1565 26.8429 73.4528C26.5466 73.7491 26.3801 74.1509 26.3801 74.57C26.3801 74.989 26.5466 75.3909 26.8429 75.6872C27.1392 75.9835 27.5411 76.15 27.9601 76.15C28.3792 76.15 28.781 75.9835 29.0774 75.6872C29.3737 75.3909 29.5401 74.989 29.5401 74.57C29.5401 74.1509 29.3737 73.7491 29.0774 73.4528C28.781 73.1565 28.3792 72.99 27.9601 72.99Z" fill="#EE3E54"/>
<path d="M61.5217 69.0669C61.2641 69.0669 61.009 69.1176 60.771 69.2162C60.533 69.3148 60.3168 69.4592 60.1346 69.6414C59.9525 69.8235 59.808 70.0398 59.7094 70.2778C59.6108 70.5158 59.5601 70.7708 59.5601 71.0284C59.5601 71.286 59.6108 71.5411 59.7094 71.7791C59.808 72.0171 59.9525 72.2333 60.1346 72.4155C60.3168 72.5976 60.533 72.7421 60.771 72.8407C61.009 72.9393 61.2641 72.99 61.5217 72.99C61.7793 72.99 62.0343 72.9393 62.2723 72.8407C62.5103 72.7421 62.7266 72.5976 62.9087 72.4155C63.0909 72.2333 63.2353 72.0171 63.3339 71.7791C63.4325 71.5411 63.4832 71.286 63.4832 71.0284C63.4832 70.7708 63.4325 70.5158 63.3339 70.2778C63.2353 70.0398 63.0909 69.8235 62.9087 69.6414C62.7266 69.4592 62.5103 69.3148 62.2723 69.2162C62.0343 69.1176 61.7793 69.0669 61.5217 69.0669V69.0669ZM21.6401 46.13C21.4306 46.13 21.2296 46.2132 21.0815 46.3614C20.9333 46.5095 20.8501 46.7105 20.8501 46.92C20.8501 47.1295 20.9333 47.3305 21.0815 47.4786C21.2296 47.6268 21.4306 47.71 21.6401 47.71C21.8496 47.71 22.0506 47.6268 22.1987 47.4786C22.3469 47.3305 22.4301 47.1295 22.4301 46.92C22.4301 46.7105 22.3469 46.5095 22.1987 46.3614C22.0506 46.2132 21.8496 46.13 21.6401 46.13Z" fill="white"/>
<path d="M76.9399 32.7C76.7304 32.7 76.5294 32.7832 76.3813 32.9314C76.2331 33.0796 76.1499 33.2805 76.1499 33.49C76.1499 33.6995 76.2331 33.9005 76.3813 34.0486C76.5294 34.1968 76.7304 34.28 76.9399 34.28C77.1494 34.28 77.3504 34.1968 77.4985 34.0486C77.6467 33.9005 77.7299 33.6995 77.7299 33.49C77.7299 33.2805 77.6467 33.0796 77.4985 32.9314C77.3504 32.7832 77.1494 32.7 76.9399 32.7Z" fill="#F1BC19"/>
<path d="M72.1999 59.56C71.7808 59.56 71.379 59.7265 71.0826 60.0228C70.7863 60.3191 70.6199 60.721 70.6199 61.14C70.6199 61.559 70.7863 61.9609 71.0826 62.2572C71.379 62.5535 71.7808 62.72 72.1999 62.72C72.6189 62.72 73.0208 62.5535 73.3171 62.2572C73.6134 61.9609 73.7799 61.559 73.7799 61.14C73.7799 60.721 73.6134 60.3191 73.3171 60.0228C73.0208 59.7265 72.6189 59.56 72.1999 59.56V59.56Z" fill="white"/>
<path d="M59.6588 62.9578C59.0726 62.957 58.6563 62.7484 58.3095 62.2807C57.3094 60.9322 56.8204 59.3214 56.8156 59.3048L56.6797 58.849L56.2081 58.9153C53.7054 59.2708 51.1395 59.4517 48.583 59.4517C46.025 59.4517 43.4022 59.2708 40.7897 58.9153L40.3204 58.8513L40.1845 59.3048C40.1798 59.3214 39.6908 60.9322 38.6907 62.2807C38.3438 62.7492 37.9275 62.9578 37.3413 62.9578C36.7275 62.9578 36.0118 62.7342 35.2549 62.4972L34.7541 62.3424C32.6037 61.6961 29.3276 59.5299 27.9253 58.262C27.3115 57.6742 26.6637 57.0557 27.0516 53.4169C27.4861 49.3374 30.052 39.0595 30.9613 36.8388C31.7789 34.8417 33.1765 33.9687 34.6577 33.1811C36.2993 32.4487 38.1258 31.842 40.0495 31.3941C40.5021 31.3001 40.8955 31.2527 41.2408 31.2527C42.2654 31.2527 42.5561 31.6824 42.6857 32.0056L43.5365 34.1259L43.9979 34.0185C45.4799 33.674 46.9888 33.4994 48.4827 33.4994C49.9766 33.4994 51.4973 33.6748 53.0047 34.0193L53.4652 34.1243L54.3153 32.0056C54.4448 31.6824 54.7355 31.2527 55.7602 31.2527C56.1054 31.2527 56.4988 31.3001 56.9626 31.3973C58.8752 31.842 60.7008 32.4487 62.3772 33.1969C63.8237 33.9687 65.2212 34.8409 66.0389 36.838C66.9482 39.0595 69.5141 49.3366 69.9486 53.4161C70.3357 57.0541 69.6887 57.6735 69.063 58.2715C67.6726 59.5292 64.3965 61.6945 62.2461 62.34L61.7436 62.4948C60.9884 62.7342 60.2734 62.9578 59.6588 62.9578Z" fill="white"/>
<path d="M55.7595 31.8057C56.062 31.8057 56.4286 31.8507 56.8252 31.9337C58.7022 32.3698 60.4829 32.9599 62.1174 33.6875C63.5441 34.4483 64.7844 35.2335 65.5278 37.0481C66.4047 39.1898 68.9793 49.5286 69.3996 53.4762C69.7583 56.8432 69.2353 57.344 68.7044 57.8528C67.3725 59.0576 64.1327 61.1985 62.0874 61.8131C61.9183 61.8636 61.7485 61.9166 61.5802 61.9695C60.8645 62.1931 60.189 62.404 59.6589 62.404C59.2442 62.404 58.9985 62.2815 58.7536 61.9513C57.8158 60.6857 57.3497 59.161 57.3458 59.1476L57.074 58.2344L56.13 58.3679C53.6525 58.7202 51.1135 58.898 48.5823 58.898C46.0488 58.898 43.4521 58.7194 40.8632 58.3671L39.9271 58.2415L39.6545 59.146C39.6498 59.161 39.1845 60.6857 38.2468 61.9505C38.0019 62.2808 37.7562 62.404 37.3414 62.404C36.8113 62.404 36.1359 62.1923 35.4201 61.9695C35.2519 61.9166 35.082 61.8636 34.913 61.8131C32.8676 61.1992 29.6279 59.0576 28.3188 57.8749C27.765 57.3448 27.2421 56.844 27.6007 53.477C28.021 49.5294 30.5956 39.1906 31.4725 37.0489C32.2159 35.2335 33.4554 34.4483 34.8829 33.6883C36.5174 32.9607 38.2973 32.3706 40.1507 31.9392C40.5709 31.8515 40.9375 31.8065 41.2401 31.8065C42.0087 31.8065 42.1146 32.0711 42.1715 32.2126L42.8453 33.8921L43.1985 34.7722L44.122 34.5581C45.5629 34.2231 47.0292 34.0533 48.4812 34.0533C49.934 34.0533 51.4137 34.2231 52.8799 34.5589L53.8011 34.7698L54.1526 33.8921L54.8265 32.2126C54.8849 32.0704 54.9908 31.8057 55.7595 31.8057ZM55.7595 30.6997C54.8944 30.6997 54.1368 30.9644 53.8011 31.8002L53.1272 33.4797C51.5677 33.1226 50.0193 32.9465 48.482 32.9465C46.9344 32.9465 45.3978 33.1258 43.8723 33.4797L43.1985 31.8002C42.8635 30.9644 42.1051 30.6997 41.2401 30.6997C40.8143 30.6997 40.3632 30.7645 39.9239 30.8561C37.9592 31.3127 36.1161 31.925 34.3971 32.6929C32.9166 33.4805 31.3556 34.4151 30.4495 36.6294C29.5188 38.9015 26.9355 49.2837 26.5018 53.3593C26.1068 57.066 26.7325 57.886 27.5549 58.6736C28.9698 59.9526 32.3273 62.1915 34.5954 62.8725C35.5481 63.1584 36.4961 63.51 37.3414 63.51C38.0216 63.51 38.6362 63.2825 39.1355 62.6094C40.2091 61.1605 40.7147 59.4628 40.7147 59.4628C43.3588 59.8231 45.9824 60.004 48.5831 60.004C51.1727 60.004 53.741 59.8246 56.2864 59.4628C56.2864 59.4628 56.7912 61.1605 57.8656 62.6094C58.3641 63.2825 58.9787 63.51 59.6589 63.51C60.5042 63.51 61.4522 63.1584 62.4057 62.8717C64.6738 62.1907 68.0313 59.9518 69.4462 58.6728C70.2686 57.8852 70.8935 57.0652 70.4993 53.3585C70.0656 49.2829 67.4815 38.9007 66.5517 36.6287C65.6447 34.4143 64.0845 33.4797 62.604 32.6921C60.885 31.9234 59.0419 31.312 57.0772 30.8553C56.6364 30.7645 56.1853 30.6997 55.7595 30.6997Z" fill="#472B29"/>
<path d="M48.6313 60.0047C43.889 60.0047 39.1679 59.2416 34.503 57.7161C34.213 57.6213 34.055 57.3085 34.1498 57.0185C34.2446 56.7286 34.5583 56.5706 34.8474 56.6654C43.9506 59.6421 53.2718 59.6437 62.5511 56.6638C62.8466 56.5738 63.1539 56.7318 63.2471 57.0217C63.3395 57.3124 63.18 57.6245 62.8892 57.7177C58.1366 59.2424 53.3729 60.0047 48.6313 60.0047ZM60.5975 36.8577C60.5256 36.8577 60.4521 36.8435 60.3826 36.8135C52.556 33.5058 44.6955 33.505 37.0183 36.8119C36.7371 36.9312 36.4116 36.804 36.2915 36.5236C36.1707 36.2431 36.3002 35.9168 36.5799 35.7968C44.5462 32.3666 52.6998 32.365 60.8131 35.7952C61.0944 35.9137 61.2255 36.2384 61.107 36.5196C61.0177 36.7313 60.8123 36.8577 60.5975 36.8577Z" fill="#472B29"/>
<path d="M60.5976 39.0697C60.5462 39.0697 60.4941 39.0595 60.4443 39.0389C60.1402 38.9109 59.8368 38.7869 59.5335 38.6684C55.3449 37.0323 51.1223 36.3284 46.9748 36.5812C46.7347 36.6081 46.5696 36.4288 46.5569 36.2107C46.5443 35.9927 46.7094 35.8054 46.9274 35.7928C51.1887 35.5384 55.5258 36.255 59.821 37.9321C60.1315 38.053 60.442 38.1794 60.7524 38.3105C60.9539 38.3951 61.0479 38.6273 60.9634 38.828C60.897 38.9789 60.7509 39.0697 60.5976 39.0697ZM43.2105 37.0615C43.0264 37.0615 42.8605 36.9312 42.8242 36.7424C42.7815 36.5283 42.9213 36.3213 43.1362 36.2794C43.784 36.1523 44.4413 36.0464 45.0907 35.965C45.3048 35.9334 45.5038 36.0898 45.5323 36.3079C45.5591 36.5243 45.4067 36.7218 45.1894 36.7495C44.5582 36.8293 43.9191 36.9312 43.2879 37.0552C43.261 37.06 43.2358 37.0615 43.2105 37.0615ZM37.5462 38.7577C37.3905 38.7577 37.242 38.6645 37.1796 38.5104C37.0974 38.3074 37.1962 38.0775 37.3977 37.9961C38.6956 37.4731 40.0173 37.0339 41.3303 36.6918C41.5436 36.631 41.7569 36.7637 41.8114 36.9739C41.8667 37.1848 41.7403 37.4005 41.5294 37.455C40.2503 37.7899 38.9603 38.2181 37.6947 38.7284C37.6457 38.7482 37.5952 38.7577 37.5462 38.7577Z" fill="#472B29"/>
<path d="M40.9951 44.313C39.9894 44.313 39.0249 44.7957 38.3138 45.655C37.6026 46.5143 37.2031 47.6798 37.2031 48.895C37.2031 50.1102 37.6026 51.2757 38.3138 52.1349C39.0249 52.9942 39.9894 53.477 40.9951 53.477C42.0008 53.477 42.9653 52.9942 43.6765 52.1349C44.3876 51.2757 44.7871 50.1102 44.7871 48.895C44.7871 47.6798 44.3876 46.5143 43.6765 45.655C42.9653 44.7957 42.0008 44.313 40.9951 44.313Z" fill="#7289DA"/>
<path d="M40.9951 44.866C42.7813 44.866 44.2341 46.6735 44.2341 48.895C44.2341 51.1165 42.7813 52.924 40.9951 52.924C39.209 52.924 37.7561 51.1165 37.7561 48.895C37.7561 46.6735 39.209 44.866 40.9951 44.866ZM40.9951 43.76C38.5951 43.76 36.6501 46.0589 36.6501 48.895C36.6501 51.7311 38.5951 54.03 40.9951 54.03C43.3952 54.03 45.3402 51.7311 45.3402 48.895C45.3402 46.0589 43.3952 43.76 40.9951 43.76Z" fill="#472B29"/>
<path d="M56.0051 44.313C54.9994 44.313 54.0349 44.7957 53.3238 45.655C52.6126 46.5143 52.2131 47.6798 52.2131 48.895C52.2131 50.1102 52.6126 51.2757 53.3238 52.135C54.0349 52.9942 54.9994 53.477 56.0051 53.477C57.0108 53.477 57.9753 52.9942 58.6865 52.135C59.3976 51.2757 59.7971 50.1102 59.7971 48.895C59.7971 47.6798 59.3976 46.5143 58.6865 45.655C57.9753 44.7957 57.0108 44.313 56.0051 44.313Z" fill="#7289DA"/>
<path d="M56.0052 44.866C57.7913 44.866 59.2442 46.6735 59.2442 48.895C59.2442 51.1165 57.7913 52.924 56.0052 52.924C54.219 52.924 52.7662 51.1165 52.7662 48.895C52.7662 46.6735 54.219 44.866 56.0052 44.866ZM56.0052 43.76C53.6051 43.76 51.6602 46.0589 51.6602 48.895C51.6602 51.7311 53.6051 54.03 56.0052 54.03C58.4052 54.03 60.3502 51.7311 60.3502 48.895C60.3502 46.0589 58.4052 43.76 56.0052 43.76Z" fill="#472B29"/>
</svg>
