<svg width="27" height="27" viewBox="0 0 27 27" fill="none" xmlns="http://www.w3.org/2000/svg">
<path d="M13.5 2.25C19.7032 2.25 24.75 7.29675 24.75 13.5C24.75 19.7032 19.7032 24.75 13.5 24.75C7.29675 24.75 2.25 19.7032 2.25 13.5C2.25 7.29675 7.29675 2.25 13.5 2.25ZM13.5 0C6.04463 0 0 6.04463 0 13.5C0 20.9554 6.04463 27 13.5 27C20.9554 27 27 20.9554 27 13.5C27 6.04463 20.9554 0 13.5 0ZM11.25 11.25H9V13.5H11.25V20.25H14.625V13.5H16.6725L16.875 11.25H14.625V10.3129C14.625 9.77512 14.733 9.5625 15.2527 9.5625H16.875V6.75H14.1705C12.1477 6.75 11.25 7.641 11.25 9.3465V11.25Z" fill="white"/>
</svg>
