<svg width="32" height="32" viewBox="0 0 32 32" fill="none" xmlns="http://www.w3.org/2000/svg">
<rect width="32" height="32" rx="2" fill="#2C3437"/>
<path d="M15.2013 10.4286C15.0803 10.4286 14.9643 10.3805 14.8788 10.295C14.7932 10.2095 14.7452 10.0935 14.7451 9.97254C14.7445 9.42626 14.5272 8.90256 14.141 8.51627C13.7547 8.12998 13.2309 7.91268 12.6846 7.91205C12.5636 7.91205 12.4476 7.86398 12.3621 7.77846C12.2766 7.69295 12.2285 7.57695 12.2285 7.45601C12.2285 7.33506 12.2766 7.21908 12.3621 7.13355C12.4476 7.04803 12.5636 7 12.6846 7C13.4727 7.00096 14.2281 7.31442 14.7854 7.87162C15.3426 8.42882 15.6561 9.18425 15.6571 9.97224C15.6571 10.0932 15.6092 10.2092 15.5237 10.2948C15.4382 10.3804 15.3222 10.4285 15.2013 10.4286Z" fill="white"/>
<path d="M16.799 10.4286C16.678 10.4286 16.5621 10.3805 16.4766 10.295C16.3911 10.2095 16.343 10.0935 16.3429 9.9725C16.3439 9.18437 16.6574 8.42883 17.2147 7.87158C17.7719 7.31433 18.5274 7.00088 19.3155 7C19.4364 7 19.5524 7.04807 19.6379 7.13359C19.7234 7.21912 19.7715 7.33512 19.7715 7.45608C19.7715 7.57703 19.7234 7.69303 19.6379 7.77856C19.5524 7.86409 19.4364 7.91212 19.3155 7.91212C18.7692 7.91274 18.2455 8.13005 17.8592 8.51636C17.4729 8.90269 17.2557 9.42648 17.255 9.97282C17.255 10.0937 17.2069 10.2096 17.1214 10.2951C17.0358 10.3806 16.9199 10.4286 16.799 10.4286Z" fill="white"/>
<path d="M10.7726 21.4797C9.17564 22.0338 7.83548 21.9776 6.94739 21.8112C5.72415 21.5823 5.01147 21.0788 4.90185 20.8602C4.84381 20.7442 4.89107 20.711 4.9361 20.6837L10.4747 17.5779V16.6001L4.49285 19.9545L4.4827 19.96C4.02046 20.2356 3.87299 20.7456 4.11541 21.2291C4.41787 21.8319 5.48908 22.3993 6.78121 22.6413C7.2517 22.7285 7.72975 22.7722 8.20882 22.7715C9.14935 22.7715 10.2861 22.6064 11.5429 22.0957L11.3195 21.9709C11.1017 21.8487 10.9149 21.6808 10.7726 21.4797Z" fill="white"/>
<path d="M27.5173 19.9597C27.5138 19.9578 27.5104 19.9558 27.507 19.9542L21.5239 16.6001V17.5778L27.0637 20.6834C27.109 20.7106 27.1564 20.7442 27.0982 20.8599C26.9886 21.0785 26.2758 21.5819 25.0523 21.8108C24.164 21.977 22.8237 22.0332 21.2268 21.4794C21.0855 21.6799 20.8999 21.8475 20.6835 21.97L20.4572 22.0964C21.7136 22.6066 22.8499 22.7715 23.7903 22.7715C24.2695 22.7722 24.7476 22.7285 25.2182 22.6413C26.5106 22.3994 27.5821 21.832 27.8845 21.2292C28.1271 20.7453 27.9795 20.2353 27.5173 19.9597Z" fill="white"/>
<path d="M21.0198 13.9149L16.812 11.3448C16.5658 11.1938 16.2863 11.1143 16.0017 11.1143C15.7172 11.1142 15.4377 11.1936 15.1914 11.3444L10.9825 13.9151C10.7366 14.0657 10.5323 14.2819 10.39 14.5421C10.2477 14.8024 10.1723 15.0975 10.1714 15.3981V20.5418C10.1721 20.8429 10.2473 21.1386 10.3897 21.3994C10.5321 21.6602 10.7365 21.8769 10.9827 22.028L15.1895 24.5974C15.4358 24.7487 15.7155 24.8284 16.0002 24.8285C16.285 24.8287 16.5647 24.7493 16.8111 24.5983L21.0214 22.027C21.2664 21.8752 21.4698 21.6584 21.6114 21.3979C21.753 21.1374 21.8278 20.8423 21.8285 20.5418V15.3982C21.8275 15.0978 21.7524 14.8029 21.6105 14.5428C21.4687 14.2826 21.265 14.0661 21.0198 13.9149ZM11.4027 14.6842L12.7641 13.8527H19.2384L20.5983 14.6832C20.7166 14.7561 20.8149 14.8604 20.8834 14.9858C20.9519 15.1112 20.9882 15.2533 20.9888 15.3982V16.5259H11.0109V15.3984C11.0116 15.2535 11.0481 15.1113 11.1168 14.986C11.1855 14.8607 11.2841 14.7567 11.4027 14.6842ZM20.6003 21.2587L19.2527 22.0817H12.7501L11.4031 21.259C11.2842 21.1861 11.1854 21.0816 11.1166 20.9558C11.0478 20.8299 11.0114 20.6872 11.0109 20.5418V19.4087H20.9892V20.5418C20.9888 20.6868 20.9528 20.8291 20.8846 20.9549C20.8164 21.0806 20.7184 21.1853 20.6003 21.2587Z" fill="white"/>
</svg>
