<svg width="32" height="32" viewBox="0 0 32 32" fill="none" xmlns="http://www.w3.org/2000/svg">
<path d="M14.935 6.15386C14.7738 6.15383 14.6191 6.06759 14.5051 5.9141C14.391 5.76061 14.3269 5.55241 14.3268 5.33533C14.3261 4.35484 14.0363 3.41485 13.5213 2.72152C13.0063 2.02817 12.3079 1.63814 11.5795 1.63701C11.4181 1.63701 11.2635 1.55074 11.1495 1.39724C11.0354 1.24375 10.9714 1.03556 10.9714 0.818479C10.9714 0.601397 11.0354 0.393212 11.1495 0.239713C11.2635 0.0862133 11.4181 0 11.5795 0C12.6302 0.00172581 13.6375 0.56435 14.3806 1.56445C15.1235 2.56455 15.5415 3.92046 15.5428 5.33481C15.5429 5.5519 15.479 5.76014 15.365 5.91372C15.251 6.06732 15.0963 6.15372 14.935 6.15386Z" fill="black"/>
<path d="M17.0653 6.15386C16.904 6.15383 16.7494 6.06758 16.6354 5.91408C16.5214 5.76057 16.4572 5.55236 16.4572 5.33526C16.4585 3.92068 16.8765 2.56457 17.6195 1.56437C18.3626 0.56418 19.3699 0.00158438 20.4206 0C20.5819 0 20.7365 0.0862728 20.8505 0.239785C20.9645 0.393298 21.0286 0.601502 21.0286 0.8186C21.0286 1.0357 20.9645 1.2439 20.8505 1.39741C20.7365 1.55093 20.5819 1.63715 20.4206 1.63715C19.6922 1.63825 18.9939 2.02829 18.4789 2.72168C17.9639 3.41509 17.6742 4.35523 17.6733 5.33584C17.6733 5.55285 17.6091 5.76088 17.4951 5.91428C17.3811 6.06768 17.2265 6.15386 17.0653 6.15386Z" fill="black"/>
<path d="M9.03008 25.9893C6.90086 26.9838 5.11397 26.8829 3.92985 26.5843C2.29887 26.1733 1.34863 25.2696 1.20247 24.8773C1.12508 24.6691 1.18809 24.6096 1.24813 24.5605L8.63288 18.986V17.231L0.657128 23.2516L0.643604 23.2615C0.0272745 23.7562 -0.169345 24.6715 0.153886 25.5393C0.557163 26.6214 1.98544 27.6399 3.70827 28.0741C4.3356 28.2307 4.97299 28.3091 5.61175 28.3079C6.86579 28.3079 8.38145 28.0115 10.0571 27.0949L9.75939 26.8709C9.46898 26.6515 9.21983 26.3502 9.03008 25.9893Z" fill="black"/>
<path d="M31.3563 23.2611C31.3518 23.2575 31.3472 23.2541 31.3427 23.2512L23.3652 17.231V18.9859L30.7515 24.56C30.812 24.6087 30.8752 24.669 30.7976 24.8767C30.6515 25.2691 29.701 26.1727 28.0697 26.5836C26.8854 26.8818 25.0983 26.9828 22.969 25.9887C22.7806 26.3485 22.5332 26.6493 22.2446 26.8693L21.9429 27.0962C23.6182 28.0119 25.1332 28.3079 26.3871 28.3079C27.026 28.3091 27.6635 28.2307 28.2909 28.0741C30.0141 27.6399 31.4428 26.6216 31.8461 25.5395C32.1695 24.671 31.9726 23.7558 31.3563 23.2611Z" fill="black"/>
<path d="M22.6931 12.4114L17.0826 7.79846C16.7544 7.5275 16.3817 7.38475 16.0023 7.38464C15.6229 7.38453 15.2502 7.52703 14.9219 7.7978L9.30994 12.4118C8.98211 12.6821 8.70976 13.0702 8.51999 13.5372C8.3303 14.0043 8.22975 14.5341 8.22852 15.0737V24.3059C8.22946 24.8464 8.32979 25.3771 8.51963 25.8452C8.70947 26.3133 8.98204 26.7023 9.31031 26.9734L14.9193 31.5851C15.2477 31.8567 15.6206 31.9998 16.0003 32.0001C16.3799 32.0004 16.7529 31.8578 17.0815 31.5869L22.6952 26.9717C23.0219 26.6993 23.2931 26.31 23.4819 25.8425C23.6706 25.3749 23.7704 24.8453 23.7714 24.306V15.0738C23.77 14.5346 23.6698 14.0053 23.4807 13.5384C23.2916 13.0713 23.02 12.6828 22.6931 12.4114ZM9.87022 13.7922L11.6855 12.2998H20.3179L22.131 13.7905C22.2887 13.9213 22.4198 14.1085 22.5112 14.3335C22.6025 14.5586 22.651 14.8137 22.6518 15.0738V17.0978H9.3479V15.0741C9.34877 14.8141 9.39741 14.5588 9.48909 14.3339C9.5807 14.109 9.71208 13.9223 9.87022 13.7922ZM22.1337 25.5927L20.337 27.0699H11.6669L9.8708 25.5932C9.71222 25.4624 9.58055 25.2748 9.4888 25.0489C9.39704 24.8231 9.34848 24.5669 9.3479 24.306V22.2722H22.6522V24.306C22.6518 24.5662 22.6037 24.8216 22.5128 25.0474C22.4219 25.273 22.2912 25.461 22.1337 25.5927Z" fill="black"/>
</svg>
