<svg width="384" height="155" viewBox="0 0 384 155" fill="none" xmlns="http://www.w3.org/2000/svg">
<g filter="url(#filter0_d)">
<rect x="40" y="31" width="304" height="75" rx="12" fill="white"/>
</g>
<path fill-rule="evenodd" clip-rule="evenodd" d="M82 84C90.8366 84 98 76.8366 98 68C98 59.1634 90.8366 52 82 52C73.1634 52 66 59.1634 66 68C66 76.8366 73.1634 84 82 84Z" fill="#4CBA38"/>
<path fill-rule="evenodd" clip-rule="evenodd" d="M73.8682 68.2678C74.2587 67.8773 74.8919 67.8773 75.2824 68.2678L79.2196 72.205L88.7174 62.7071C89.108 62.3166 89.7411 62.3166 90.1316 62.7071C90.5222 63.0976 90.5222 63.7308 90.1316 64.1213L80.9393 73.3137C80.2631 73.9899 79.2232 74.0807 78.4494 73.5861L78.1108 73.9246L73.8682 69.682C73.4777 69.2915 73.4777 68.6583 73.8682 68.2678Z" fill="white"/>
<path d="M120.518 63.308C121.334 63.308 121.928 63.17 122.3 62.894C122.672 62.618 122.858 62.228 122.858 61.724C122.858 61.424 122.792 61.166 122.66 60.95C122.54 60.734 122.36 60.542 122.12 60.374C121.892 60.194 121.61 60.032 121.274 59.888C120.938 59.732 120.554 59.582 120.122 59.438C119.69 59.282 119.27 59.114 118.862 58.934C118.466 58.742 118.112 58.508 117.8 58.232C117.5 57.956 117.254 57.626 117.062 57.242C116.882 56.858 116.792 56.396 116.792 55.856C116.792 54.728 117.182 53.846 117.962 53.21C118.742 52.562 119.804 52.238 121.148 52.238C121.928 52.238 122.618 52.328 123.218 52.508C123.83 52.676 124.31 52.862 124.658 53.066L123.956 54.902C123.548 54.674 123.098 54.5 122.606 54.38C122.126 54.26 121.628 54.2 121.112 54.2C120.5 54.2 120.02 54.326 119.672 54.578C119.336 54.83 119.168 55.184 119.168 55.64C119.168 55.916 119.222 56.156 119.33 56.36C119.45 56.552 119.612 56.726 119.816 56.882C120.032 57.038 120.278 57.182 120.554 57.314C120.842 57.446 121.154 57.572 121.49 57.692C122.078 57.908 122.6 58.13 123.056 58.358C123.524 58.574 123.914 58.838 124.226 59.15C124.55 59.45 124.796 59.81 124.964 60.23C125.132 60.638 125.216 61.136 125.216 61.724C125.216 62.852 124.814 63.728 124.01 64.352C123.218 64.964 122.054 65.27 120.518 65.27C120.002 65.27 119.528 65.234 119.096 65.162C118.676 65.102 118.298 65.024 117.962 64.928C117.638 64.832 117.356 64.736 117.116 64.64C116.876 64.532 116.684 64.436 116.54 64.352L117.206 62.498C117.53 62.678 117.968 62.858 118.52 63.038C119.072 63.218 119.738 63.308 120.518 63.308ZM127.575 60.338C127.575 59.51 127.695 58.784 127.935 58.16C128.187 57.536 128.517 57.02 128.925 56.612C129.333 56.192 129.801 55.88 130.329 55.676C130.857 55.46 131.397 55.352 131.949 55.352C133.245 55.352 134.253 55.754 134.973 56.558C135.705 57.362 136.071 58.562 136.071 60.158C136.071 60.278 136.065 60.416 136.053 60.572C136.053 60.716 136.047 60.848 136.035 60.968H129.825C129.885 61.724 130.149 62.312 130.617 62.732C131.097 63.14 131.787 63.344 132.687 63.344C133.215 63.344 133.695 63.296 134.127 63.2C134.571 63.104 134.919 63.002 135.171 62.894L135.459 64.676C135.339 64.736 135.171 64.802 134.955 64.874C134.751 64.934 134.511 64.988 134.235 65.036C133.971 65.096 133.683 65.144 133.371 65.18C133.059 65.216 132.741 65.234 132.417 65.234C131.589 65.234 130.869 65.114 130.257 64.874C129.645 64.622 129.141 64.28 128.745 63.848C128.349 63.404 128.055 62.888 127.863 62.3C127.671 61.7 127.575 61.046 127.575 60.338ZM133.893 59.366C133.893 59.066 133.851 58.784 133.767 58.52C133.683 58.244 133.557 58.01 133.389 57.818C133.233 57.614 133.035 57.458 132.795 57.35C132.567 57.23 132.291 57.17 131.967 57.17C131.631 57.17 131.337 57.236 131.085 57.368C130.833 57.488 130.617 57.65 130.437 57.854C130.269 58.058 130.137 58.292 130.041 58.556C129.945 58.82 129.879 59.09 129.843 59.366H133.893ZM142.682 63.47C143.354 63.47 143.864 63.434 144.212 63.362V60.95C144.092 60.914 143.918 60.878 143.69 60.842C143.462 60.806 143.21 60.788 142.934 60.788C142.694 60.788 142.448 60.806 142.196 60.842C141.956 60.878 141.734 60.944 141.53 61.04C141.338 61.136 141.182 61.274 141.062 61.454C140.942 61.622 140.882 61.838 140.882 62.102C140.882 62.618 141.044 62.978 141.368 63.182C141.692 63.374 142.13 63.47 142.682 63.47ZM142.502 55.352C143.222 55.352 143.828 55.442 144.32 55.622C144.812 55.802 145.202 56.054 145.49 56.378C145.79 56.702 146 57.098 146.12 57.566C146.252 58.022 146.318 58.526 146.318 59.078V64.784C145.982 64.856 145.472 64.94 144.788 65.036C144.116 65.144 143.354 65.198 142.502 65.198C141.938 65.198 141.422 65.144 140.954 65.036C140.486 64.928 140.084 64.754 139.748 64.514C139.424 64.274 139.166 63.962 138.974 63.578C138.794 63.194 138.704 62.72 138.704 62.156C138.704 61.616 138.806 61.16 139.01 60.788C139.226 60.416 139.514 60.116 139.874 59.888C140.234 59.648 140.648 59.48 141.116 59.384C141.596 59.276 142.094 59.222 142.61 59.222C142.85 59.222 143.102 59.24 143.366 59.276C143.63 59.3 143.912 59.348 144.212 59.42V59.06C144.212 58.808 144.182 58.568 144.122 58.34C144.062 58.112 143.954 57.914 143.798 57.746C143.654 57.566 143.456 57.428 143.204 57.332C142.964 57.236 142.658 57.188 142.286 57.188C141.782 57.188 141.32 57.224 140.9 57.296C140.48 57.368 140.138 57.452 139.874 57.548L139.604 55.784C139.88 55.688 140.282 55.592 140.81 55.496C141.338 55.4 141.902 55.352 142.502 55.352ZM155.339 60.05C155.339 59.066 155.213 58.358 154.961 57.926C154.721 57.482 154.265 57.26 153.593 57.26C153.353 57.26 153.089 57.278 152.801 57.314C152.513 57.35 152.297 57.38 152.153 57.404V65H149.975V55.892C150.395 55.772 150.941 55.658 151.613 55.55C152.297 55.442 153.017 55.388 153.773 55.388C154.421 55.388 154.949 55.472 155.357 55.64C155.777 55.808 156.125 56.03 156.401 56.306C156.533 56.21 156.701 56.108 156.905 56C157.109 55.892 157.337 55.796 157.589 55.712C157.841 55.616 158.105 55.538 158.381 55.478C158.669 55.418 158.957 55.388 159.245 55.388C159.977 55.388 160.577 55.496 161.045 55.712C161.525 55.916 161.897 56.21 162.161 56.594C162.437 56.966 162.623 57.422 162.719 57.962C162.827 58.49 162.881 59.072 162.881 59.708V65H160.703V60.05C160.703 59.066 160.583 58.358 160.343 57.926C160.103 57.482 159.641 57.26 158.957 57.26C158.609 57.26 158.279 57.32 157.967 57.44C157.655 57.548 157.421 57.656 157.265 57.764C157.361 58.064 157.427 58.382 157.463 58.718C157.499 59.054 157.517 59.414 157.517 59.798V65H155.339V60.05ZM169.815 65.18C169.167 65.168 168.627 65.096 168.195 64.964C167.775 64.832 167.439 64.646 167.187 64.406C166.935 64.154 166.755 63.848 166.647 63.488C166.551 63.116 166.503 62.696 166.503 62.228V51.392L168.681 51.032V61.814C168.681 62.078 168.699 62.3 168.735 62.48C168.783 62.66 168.861 62.816 168.969 62.948C169.077 63.068 169.221 63.164 169.401 63.236C169.593 63.296 169.833 63.344 170.121 63.38L169.815 65.18ZM172.351 60.338C172.351 59.51 172.471 58.784 172.711 58.16C172.963 57.536 173.293 57.02 173.701 56.612C174.109 56.192 174.577 55.88 175.105 55.676C175.633 55.46 176.173 55.352 176.725 55.352C178.021 55.352 179.029 55.754 179.749 56.558C180.481 57.362 180.847 58.562 180.847 60.158C180.847 60.278 180.841 60.416 180.829 60.572C180.829 60.716 180.823 60.848 180.811 60.968H174.601C174.661 61.724 174.925 62.312 175.393 62.732C175.873 63.14 176.563 63.344 177.463 63.344C177.991 63.344 178.471 63.296 178.903 63.2C179.347 63.104 179.695 63.002 179.947 62.894L180.235 64.676C180.115 64.736 179.947 64.802 179.731 64.874C179.527 64.934 179.287 64.988 179.011 65.036C178.747 65.096 178.459 65.144 178.147 65.18C177.835 65.216 177.517 65.234 177.193 65.234C176.365 65.234 175.645 65.114 175.033 64.874C174.421 64.622 173.917 64.28 173.521 63.848C173.125 63.404 172.831 62.888 172.639 62.3C172.447 61.7 172.351 61.046 172.351 60.338ZM178.669 59.366C178.669 59.066 178.627 58.784 178.543 58.52C178.459 58.244 178.333 58.01 178.165 57.818C178.009 57.614 177.811 57.458 177.571 57.35C177.343 57.23 177.067 57.17 176.743 57.17C176.407 57.17 176.113 57.236 175.861 57.368C175.609 57.488 175.393 57.65 175.213 57.854C175.045 58.058 174.913 58.292 174.817 58.556C174.721 58.82 174.655 59.09 174.619 59.366H178.669ZM186.504 63.434C187.08 63.434 187.5 63.368 187.764 63.236C188.028 63.092 188.16 62.852 188.16 62.516C188.16 62.204 188.016 61.946 187.728 61.742C187.452 61.538 186.99 61.316 186.342 61.076C185.946 60.932 185.58 60.782 185.244 60.626C184.92 60.458 184.638 60.266 184.398 60.05C184.158 59.834 183.966 59.576 183.822 59.276C183.69 58.964 183.624 58.586 183.624 58.142C183.624 57.278 183.942 56.6 184.578 56.108C185.214 55.604 186.078 55.352 187.17 55.352C187.722 55.352 188.25 55.406 188.754 55.514C189.258 55.61 189.636 55.706 189.888 55.802L189.492 57.566C189.252 57.458 188.946 57.362 188.574 57.278C188.202 57.182 187.77 57.134 187.278 57.134C186.834 57.134 186.474 57.212 186.198 57.368C185.922 57.512 185.784 57.74 185.784 58.052C185.784 58.208 185.808 58.346 185.856 58.466C185.916 58.586 186.012 58.7 186.144 58.808C186.276 58.904 186.45 59.006 186.666 59.114C186.882 59.21 187.146 59.312 187.458 59.42C187.974 59.612 188.412 59.804 188.772 59.996C189.132 60.176 189.426 60.386 189.654 60.626C189.894 60.854 190.068 61.118 190.176 61.418C190.284 61.718 190.338 62.078 190.338 62.498C190.338 63.398 190.002 64.082 189.33 64.55C188.67 65.006 187.722 65.234 186.486 65.234C185.658 65.234 184.992 65.162 184.488 65.018C183.984 64.886 183.63 64.778 183.426 64.694L183.804 62.876C184.128 63.008 184.512 63.134 184.956 63.254C185.412 63.374 185.928 63.434 186.504 63.434ZM195.721 63.434C196.297 63.434 196.717 63.368 196.981 63.236C197.245 63.092 197.377 62.852 197.377 62.516C197.377 62.204 197.233 61.946 196.945 61.742C196.669 61.538 196.207 61.316 195.559 61.076C195.163 60.932 194.797 60.782 194.461 60.626C194.137 60.458 193.855 60.266 193.615 60.05C193.375 59.834 193.183 59.576 193.039 59.276C192.907 58.964 192.841 58.586 192.841 58.142C192.841 57.278 193.159 56.6 193.795 56.108C194.431 55.604 195.295 55.352 196.387 55.352C196.939 55.352 197.467 55.406 197.971 55.514C198.475 55.61 198.853 55.706 199.105 55.802L198.709 57.566C198.469 57.458 198.163 57.362 197.791 57.278C197.419 57.182 196.987 57.134 196.495 57.134C196.051 57.134 195.691 57.212 195.415 57.368C195.139 57.512 195.001 57.74 195.001 58.052C195.001 58.208 195.025 58.346 195.073 58.466C195.133 58.586 195.229 58.7 195.361 58.808C195.493 58.904 195.667 59.006 195.883 59.114C196.099 59.21 196.363 59.312 196.675 59.42C197.191 59.612 197.629 59.804 197.989 59.996C198.349 60.176 198.643 60.386 198.871 60.626C199.111 60.854 199.285 61.118 199.393 61.418C199.501 61.718 199.555 62.078 199.555 62.498C199.555 63.398 199.219 64.082 198.547 64.55C197.887 65.006 196.939 65.234 195.703 65.234C194.875 65.234 194.209 65.162 193.705 65.018C193.201 64.886 192.847 64.778 192.643 64.694L193.021 62.876C193.345 63.008 193.729 63.134 194.173 63.254C194.629 63.374 195.145 63.434 195.721 63.434ZM216.573 52.526V54.488H212.739V65H210.453V54.488H206.619V52.526H216.573ZM223.898 57.548C223.718 57.488 223.466 57.428 223.142 57.368C222.83 57.296 222.464 57.26 222.044 57.26C221.804 57.26 221.546 57.284 221.27 57.332C221.006 57.38 220.82 57.422 220.712 57.458V65H218.534V56.036C218.954 55.88 219.476 55.736 220.1 55.604C220.736 55.46 221.438 55.388 222.206 55.388C222.35 55.388 222.518 55.4 222.71 55.424C222.902 55.436 223.094 55.46 223.286 55.496C223.478 55.52 223.664 55.556 223.844 55.604C224.024 55.64 224.168 55.676 224.276 55.712L223.898 57.548ZM230.096 63.47C230.768 63.47 231.278 63.434 231.626 63.362V60.95C231.506 60.914 231.332 60.878 231.104 60.842C230.876 60.806 230.624 60.788 230.348 60.788C230.108 60.788 229.862 60.806 229.61 60.842C229.37 60.878 229.148 60.944 228.944 61.04C228.752 61.136 228.596 61.274 228.476 61.454C228.356 61.622 228.296 61.838 228.296 62.102C228.296 62.618 228.458 62.978 228.782 63.182C229.106 63.374 229.544 63.47 230.096 63.47ZM229.916 55.352C230.636 55.352 231.242 55.442 231.734 55.622C232.226 55.802 232.616 56.054 232.904 56.378C233.204 56.702 233.414 57.098 233.534 57.566C233.666 58.022 233.732 58.526 233.732 59.078V64.784C233.396 64.856 232.886 64.94 232.202 65.036C231.53 65.144 230.768 65.198 229.916 65.198C229.352 65.198 228.836 65.144 228.368 65.036C227.9 64.928 227.498 64.754 227.162 64.514C226.838 64.274 226.58 63.962 226.388 63.578C226.208 63.194 226.118 62.72 226.118 62.156C226.118 61.616 226.22 61.16 226.424 60.788C226.64 60.416 226.928 60.116 227.288 59.888C227.648 59.648 228.062 59.48 228.53 59.384C229.01 59.276 229.508 59.222 230.024 59.222C230.264 59.222 230.516 59.24 230.78 59.276C231.044 59.3 231.326 59.348 231.626 59.42V59.06C231.626 58.808 231.596 58.568 231.536 58.34C231.476 58.112 231.368 57.914 231.212 57.746C231.068 57.566 230.87 57.428 230.618 57.332C230.378 57.236 230.072 57.188 229.7 57.188C229.196 57.188 228.734 57.224 228.314 57.296C227.894 57.368 227.552 57.452 227.288 57.548L227.018 55.784C227.294 55.688 227.696 55.592 228.224 55.496C228.752 55.4 229.316 55.352 229.916 55.352ZM237.389 55.892C237.809 55.772 238.355 55.658 239.027 55.55C239.699 55.442 240.443 55.388 241.259 55.388C242.027 55.388 242.669 55.496 243.185 55.712C243.701 55.916 244.109 56.21 244.409 56.594C244.721 56.966 244.937 57.422 245.057 57.962C245.189 58.49 245.255 59.072 245.255 59.708V65H243.077V60.05C243.077 59.546 243.041 59.12 242.969 58.772C242.909 58.412 242.801 58.124 242.645 57.908C242.501 57.68 242.297 57.518 242.033 57.422C241.781 57.314 241.469 57.26 241.097 57.26C240.821 57.26 240.533 57.278 240.233 57.314C239.933 57.35 239.711 57.38 239.567 57.404V65H237.389V55.892ZM251.266 63.434C251.842 63.434 252.262 63.368 252.526 63.236C252.79 63.092 252.922 62.852 252.922 62.516C252.922 62.204 252.778 61.946 252.49 61.742C252.214 61.538 251.752 61.316 251.104 61.076C250.708 60.932 250.342 60.782 250.006 60.626C249.682 60.458 249.4 60.266 249.16 60.05C248.92 59.834 248.728 59.576 248.584 59.276C248.452 58.964 248.386 58.586 248.386 58.142C248.386 57.278 248.704 56.6 249.34 56.108C249.976 55.604 250.84 55.352 251.932 55.352C252.484 55.352 253.012 55.406 253.516 55.514C254.02 55.61 254.398 55.706 254.65 55.802L254.254 57.566C254.014 57.458 253.708 57.362 253.336 57.278C252.964 57.182 252.532 57.134 252.04 57.134C251.596 57.134 251.236 57.212 250.96 57.368C250.684 57.512 250.546 57.74 250.546 58.052C250.546 58.208 250.57 58.346 250.618 58.466C250.678 58.586 250.774 58.7 250.906 58.808C251.038 58.904 251.212 59.006 251.428 59.114C251.644 59.21 251.908 59.312 252.22 59.42C252.736 59.612 253.174 59.804 253.534 59.996C253.894 60.176 254.188 60.386 254.416 60.626C254.656 60.854 254.83 61.118 254.938 61.418C255.046 61.718 255.1 62.078 255.1 62.498C255.1 63.398 254.764 64.082 254.092 64.55C253.432 65.006 252.484 65.234 251.248 65.234C250.42 65.234 249.754 65.162 249.25 65.018C248.746 64.886 248.392 64.778 248.188 64.694L248.566 62.876C248.89 63.008 249.274 63.134 249.718 63.254C250.174 63.374 250.69 63.434 251.266 63.434ZM261.437 63.47C262.109 63.47 262.619 63.434 262.967 63.362V60.95C262.847 60.914 262.673 60.878 262.445 60.842C262.217 60.806 261.965 60.788 261.689 60.788C261.449 60.788 261.203 60.806 260.951 60.842C260.711 60.878 260.489 60.944 260.285 61.04C260.093 61.136 259.937 61.274 259.817 61.454C259.697 61.622 259.637 61.838 259.637 62.102C259.637 62.618 259.799 62.978 260.123 63.182C260.447 63.374 260.885 63.47 261.437 63.47ZM261.257 55.352C261.977 55.352 262.583 55.442 263.075 55.622C263.567 55.802 263.957 56.054 264.245 56.378C264.545 56.702 264.755 57.098 264.875 57.566C265.007 58.022 265.073 58.526 265.073 59.078V64.784C264.737 64.856 264.227 64.94 263.543 65.036C262.871 65.144 262.109 65.198 261.257 65.198C260.693 65.198 260.177 65.144 259.709 65.036C259.241 64.928 258.839 64.754 258.503 64.514C258.179 64.274 257.921 63.962 257.729 63.578C257.549 63.194 257.459 62.72 257.459 62.156C257.459 61.616 257.561 61.16 257.765 60.788C257.981 60.416 258.269 60.116 258.629 59.888C258.989 59.648 259.403 59.48 259.871 59.384C260.351 59.276 260.849 59.222 261.365 59.222C261.605 59.222 261.857 59.24 262.121 59.276C262.385 59.3 262.667 59.348 262.967 59.42V59.06C262.967 58.808 262.937 58.568 262.877 58.34C262.817 58.112 262.709 57.914 262.553 57.746C262.409 57.566 262.211 57.428 261.959 57.332C261.719 57.236 261.413 57.188 261.041 57.188C260.537 57.188 260.075 57.224 259.655 57.296C259.235 57.368 258.893 57.452 258.629 57.548L258.359 55.784C258.635 55.688 259.037 55.592 259.565 55.496C260.093 55.4 260.657 55.352 261.257 55.352ZM268.208 60.302C268.208 59.606 268.316 58.958 268.532 58.358C268.748 57.746 269.054 57.218 269.45 56.774C269.858 56.33 270.35 55.982 270.926 55.73C271.502 55.478 272.15 55.352 272.87 55.352C273.758 55.352 274.598 55.514 275.39 55.838L274.922 57.62C274.67 57.512 274.382 57.422 274.058 57.35C273.746 57.278 273.41 57.242 273.05 57.242C272.198 57.242 271.55 57.512 271.106 58.052C270.662 58.58 270.44 59.33 270.44 60.302C270.44 61.238 270.65 61.982 271.07 62.534C271.49 63.074 272.198 63.344 273.194 63.344C273.566 63.344 273.932 63.308 274.292 63.236C274.652 63.164 274.964 63.074 275.228 62.966L275.534 64.766C275.294 64.886 274.928 64.994 274.436 65.09C273.956 65.186 273.458 65.234 272.942 65.234C272.138 65.234 271.436 65.114 270.836 64.874C270.248 64.622 269.756 64.28 269.36 63.848C268.976 63.404 268.688 62.882 268.496 62.282C268.304 61.67 268.208 61.01 268.208 60.302ZM278.102 53.102L280.28 52.742V55.586H283.628V57.404H280.28V61.238C280.28 61.994 280.4 62.534 280.64 62.858C280.88 63.182 281.288 63.344 281.864 63.344C282.26 63.344 282.608 63.302 282.908 63.218C283.22 63.134 283.466 63.056 283.646 62.984L284.006 64.712C283.754 64.82 283.424 64.928 283.016 65.036C282.608 65.156 282.128 65.216 281.576 65.216C280.904 65.216 280.34 65.126 279.884 64.946C279.44 64.766 279.086 64.508 278.822 64.172C278.558 63.824 278.372 63.41 278.264 62.93C278.156 62.438 278.102 61.88 278.102 61.256V53.102ZM288.92 65H286.742V55.586H288.92V65ZM289.154 52.832C289.154 53.24 289.022 53.564 288.758 53.804C288.494 54.044 288.182 54.164 287.822 54.164C287.45 54.164 287.132 54.044 286.868 53.804C286.604 53.564 286.472 53.24 286.472 52.832C286.472 52.412 286.604 52.082 286.868 51.842C287.132 51.602 287.45 51.482 287.822 51.482C288.182 51.482 288.494 51.602 288.758 51.842C289.022 52.082 289.154 52.412 289.154 52.832ZM301.202 60.284C301.202 61.028 301.094 61.706 300.878 62.318C300.662 62.93 300.356 63.452 299.96 63.884C299.564 64.316 299.084 64.652 298.52 64.892C297.968 65.132 297.356 65.252 296.684 65.252C296.012 65.252 295.4 65.132 294.848 64.892C294.296 64.652 293.822 64.316 293.426 63.884C293.03 63.452 292.718 62.93 292.49 62.318C292.274 61.706 292.166 61.028 292.166 60.284C292.166 59.54 292.274 58.868 292.49 58.268C292.718 57.656 293.03 57.134 293.426 56.702C293.834 56.27 294.314 55.94 294.866 55.712C295.418 55.472 296.024 55.352 296.684 55.352C297.344 55.352 297.95 55.472 298.502 55.712C299.066 55.94 299.546 56.27 299.942 56.702C300.338 57.134 300.644 57.656 300.86 58.268C301.088 58.868 301.202 59.54 301.202 60.284ZM298.97 60.284C298.97 59.348 298.766 58.61 298.358 58.07C297.962 57.518 297.404 57.242 296.684 57.242C295.964 57.242 295.4 57.518 294.992 58.07C294.596 58.61 294.398 59.348 294.398 60.284C294.398 61.232 294.596 61.982 294.992 62.534C295.4 63.086 295.964 63.362 296.684 63.362C297.404 63.362 297.962 63.086 298.358 62.534C298.766 61.982 298.97 61.232 298.97 60.284ZM304.436 55.892C304.856 55.772 305.402 55.658 306.074 55.55C306.746 55.442 307.49 55.388 308.306 55.388C309.074 55.388 309.716 55.496 310.232 55.712C310.748 55.916 311.156 56.21 311.456 56.594C311.768 56.966 311.984 57.422 312.104 57.962C312.236 58.49 312.302 59.072 312.302 59.708V65H310.124V60.05C310.124 59.546 310.088 59.12 310.016 58.772C309.956 58.412 309.848 58.124 309.692 57.908C309.548 57.68 309.344 57.518 309.08 57.422C308.828 57.314 308.516 57.26 308.144 57.26C307.868 57.26 307.58 57.278 307.28 57.314C306.98 57.35 306.758 57.38 306.614 57.404V65H304.436V55.892ZM318.314 63.434C318.89 63.434 319.31 63.368 319.574 63.236C319.838 63.092 319.97 62.852 319.97 62.516C319.97 62.204 319.826 61.946 319.538 61.742C319.262 61.538 318.8 61.316 318.152 61.076C317.756 60.932 317.39 60.782 317.054 60.626C316.73 60.458 316.448 60.266 316.208 60.05C315.968 59.834 315.776 59.576 315.632 59.276C315.5 58.964 315.434 58.586 315.434 58.142C315.434 57.278 315.752 56.6 316.388 56.108C317.024 55.604 317.888 55.352 318.98 55.352C319.532 55.352 320.06 55.406 320.564 55.514C321.068 55.61 321.446 55.706 321.698 55.802L321.302 57.566C321.062 57.458 320.756 57.362 320.384 57.278C320.012 57.182 319.58 57.134 319.088 57.134C318.644 57.134 318.284 57.212 318.008 57.368C317.732 57.512 317.594 57.74 317.594 58.052C317.594 58.208 317.618 58.346 317.666 58.466C317.726 58.586 317.822 58.7 317.954 58.808C318.086 58.904 318.26 59.006 318.476 59.114C318.692 59.21 318.956 59.312 319.268 59.42C319.784 59.612 320.222 59.804 320.582 59.996C320.942 60.176 321.236 60.386 321.464 60.626C321.704 60.854 321.878 61.118 321.986 61.418C322.094 61.718 322.148 62.078 322.148 62.498C322.148 63.398 321.812 64.082 321.14 64.55C320.48 65.006 319.532 65.234 318.296 65.234C317.468 65.234 316.802 65.162 316.298 65.018C315.794 64.886 315.44 64.778 315.236 64.694L315.614 62.876C315.938 63.008 316.322 63.134 316.766 63.254C317.222 63.374 317.738 63.434 318.314 63.434Z" fill="#575D69"/>
<path d="M119.616 85.912C120.565 85.912 121.243 85.7253 121.648 85.352C122.064 84.9787 122.272 84.4773 122.272 83.848C122.272 83.4427 122.187 83.1013 122.016 82.824C121.845 82.5467 121.621 82.328 121.344 82.168C121.067 81.9973 120.741 81.88 120.368 81.816C120.005 81.7413 119.632 81.704 119.248 81.704H118.864V80.488H119.392C119.659 80.488 119.931 80.4613 120.208 80.408C120.496 80.3547 120.757 80.2587 120.992 80.12C121.227 79.9813 121.419 79.7947 121.568 79.56C121.717 79.3147 121.792 79.0107 121.792 78.648C121.792 78.3493 121.739 78.0933 121.632 77.88C121.525 77.6667 121.381 77.4907 121.2 77.352C121.029 77.2133 120.827 77.1173 120.592 77.064C120.368 77 120.128 76.968 119.872 76.968C119.36 76.968 118.923 77.0427 118.56 77.192C118.208 77.3413 117.909 77.496 117.664 77.656L117.088 76.52C117.216 76.4347 117.376 76.344 117.568 76.248C117.771 76.1413 117.995 76.0453 118.24 75.96C118.485 75.8747 118.747 75.8053 119.024 75.752C119.312 75.688 119.611 75.656 119.92 75.656C120.507 75.656 121.013 75.7307 121.44 75.88C121.867 76.0187 122.219 76.2213 122.496 76.488C122.773 76.744 122.981 77.0533 123.12 77.416C123.259 77.768 123.328 78.152 123.328 78.568C123.328 79.144 123.163 79.64 122.832 80.056C122.501 80.4613 122.101 80.7707 121.632 80.984C121.92 81.0693 122.197 81.192 122.464 81.352C122.731 81.512 122.96 81.7147 123.152 81.96C123.355 82.2053 123.515 82.488 123.632 82.808C123.76 83.128 123.824 83.4853 123.824 83.88C123.824 84.36 123.739 84.808 123.568 85.224C123.408 85.6293 123.152 85.9813 122.8 86.28C122.459 86.5787 122.027 86.8133 121.504 86.984C120.981 87.1547 120.363 87.24 119.648 87.24C119.371 87.24 119.083 87.2187 118.784 87.176C118.496 87.1333 118.224 87.08 117.968 87.016C117.712 86.952 117.488 86.888 117.296 86.824C117.104 86.76 116.965 86.7067 116.88 86.664L117.168 85.368C117.349 85.4533 117.648 85.5653 118.064 85.704C118.491 85.8427 119.008 85.912 119.616 85.912ZM133.71 85.928C134.318 85.928 134.766 85.848 135.054 85.688C135.353 85.528 135.502 85.272 135.502 84.92C135.502 84.5573 135.358 84.2693 135.07 84.056C134.782 83.8427 134.308 83.6027 133.646 83.336C133.326 83.208 133.017 83.08 132.718 82.952C132.43 82.8133 132.18 82.6533 131.966 82.472C131.753 82.2907 131.582 82.072 131.454 81.816C131.326 81.56 131.262 81.2453 131.262 80.872C131.262 80.136 131.534 79.5547 132.078 79.128C132.622 78.6907 133.364 78.472 134.302 78.472C134.537 78.472 134.772 78.488 135.006 78.52C135.241 78.5413 135.46 78.5733 135.662 78.616C135.865 78.648 136.041 78.6853 136.19 78.728C136.35 78.7707 136.473 78.808 136.558 78.84L136.286 80.12C136.126 80.0347 135.876 79.9493 135.534 79.864C135.193 79.768 134.782 79.72 134.302 79.72C133.886 79.72 133.524 79.8053 133.214 79.976C132.905 80.136 132.75 80.392 132.75 80.744C132.75 80.9253 132.782 81.0853 132.846 81.224C132.921 81.3627 133.028 81.4907 133.166 81.608C133.316 81.7147 133.497 81.816 133.71 81.912C133.924 82.008 134.18 82.1093 134.478 82.216C134.873 82.3653 135.225 82.5147 135.534 82.664C135.844 82.8027 136.105 82.968 136.318 83.16C136.542 83.352 136.713 83.5867 136.83 83.864C136.948 84.1307 137.006 84.4613 137.006 84.856C137.006 85.624 136.718 86.2053 136.142 86.6C135.577 86.9947 134.766 87.192 133.71 87.192C132.974 87.192 132.398 87.128 131.982 87C131.566 86.8827 131.284 86.792 131.134 86.728L131.406 85.448C131.577 85.512 131.849 85.608 132.222 85.736C132.596 85.864 133.092 85.928 133.71 85.928ZM139.331 82.856C139.331 82.12 139.438 81.48 139.651 80.936C139.864 80.3813 140.147 79.9227 140.499 79.56C140.851 79.1973 141.256 78.9253 141.715 78.744C142.174 78.5627 142.643 78.472 143.123 78.472C144.243 78.472 145.102 78.824 145.699 79.528C146.296 80.2213 146.595 81.2827 146.595 82.712C146.595 82.776 146.595 82.8613 146.595 82.968C146.595 83.064 146.59 83.1547 146.579 83.24H140.883C140.947 84.104 141.198 84.76 141.635 85.208C142.072 85.656 142.755 85.88 143.683 85.88C144.206 85.88 144.643 85.8373 144.995 85.752C145.358 85.656 145.63 85.5653 145.811 85.48L146.019 86.728C145.838 86.824 145.518 86.9253 145.059 87.032C144.611 87.1387 144.099 87.192 143.523 87.192C142.798 87.192 142.168 87.0853 141.635 86.872C141.112 86.648 140.68 86.344 140.339 85.96C139.998 85.576 139.742 85.1227 139.571 84.6C139.411 84.0667 139.331 83.4853 139.331 82.856ZM145.043 82.04C145.054 81.368 144.883 80.8187 144.531 80.392C144.19 79.9547 143.715 79.736 143.107 79.736C142.766 79.736 142.462 79.8053 142.195 79.944C141.939 80.072 141.72 80.2427 141.539 80.456C141.358 80.6693 141.214 80.9147 141.107 81.192C141.011 81.4693 140.947 81.752 140.915 82.04H145.043ZM153.229 87.192C152.557 87.192 151.965 87.0853 151.453 86.872C150.951 86.6587 150.525 86.36 150.173 85.976C149.831 85.592 149.575 85.1387 149.405 84.616C149.234 84.0827 149.149 83.496 149.149 82.856C149.149 82.216 149.239 81.6293 149.421 81.096C149.613 80.5627 149.879 80.104 150.221 79.72C150.562 79.3253 150.978 79.0213 151.469 78.808C151.97 78.584 152.525 78.472 153.133 78.472C153.506 78.472 153.879 78.504 154.253 78.568C154.626 78.632 154.983 78.7333 155.325 78.872L154.989 80.136C154.765 80.0293 154.503 79.944 154.205 79.88C153.917 79.816 153.607 79.784 153.277 79.784C152.445 79.784 151.805 80.0453 151.357 80.568C150.919 81.0907 150.701 81.8533 150.701 82.856C150.701 83.304 150.749 83.7147 150.845 84.088C150.951 84.4613 151.111 84.7813 151.325 85.048C151.549 85.3147 151.831 85.5227 152.173 85.672C152.514 85.8107 152.93 85.88 153.421 85.88C153.815 85.88 154.173 85.8427 154.493 85.768C154.813 85.6933 155.063 85.6133 155.245 85.528L155.453 86.776C155.367 86.8293 155.245 86.8827 155.085 86.936C154.925 86.9787 154.743 87.016 154.541 87.048C154.338 87.0907 154.119 87.1227 153.885 87.144C153.661 87.176 153.442 87.192 153.229 87.192ZM168.289 82.856C168.289 81.8853 168.049 81.1387 167.569 80.616C167.089 80.0933 166.449 79.832 165.649 79.832C165.201 79.832 164.849 79.848 164.593 79.88C164.348 79.912 164.15 79.9493 164.001 79.992V85.24C164.182 85.3893 164.444 85.5333 164.785 85.672C165.126 85.8107 165.5 85.88 165.905 85.88C166.332 85.88 166.694 85.8053 166.993 85.656C167.302 85.496 167.553 85.2827 167.745 85.016C167.937 84.7387 168.076 84.4187 168.161 84.056C168.246 83.6827 168.289 83.2827 168.289 82.856ZM169.841 82.856C169.841 83.4853 169.756 84.0667 169.585 84.6C169.425 85.1333 169.185 85.592 168.865 85.976C168.545 86.36 168.15 86.6587 167.681 86.872C167.222 87.0853 166.694 87.192 166.097 87.192C165.617 87.192 165.19 87.128 164.817 87C164.454 86.872 164.182 86.7493 164.001 86.632V89.96H162.513V78.936C162.865 78.8507 163.302 78.76 163.825 78.664C164.358 78.5573 164.972 78.504 165.665 78.504C166.305 78.504 166.881 78.6053 167.393 78.808C167.905 79.0107 168.342 79.2987 168.705 79.672C169.068 80.0453 169.345 80.504 169.537 81.048C169.74 81.5813 169.841 82.184 169.841 82.856ZM172.351 82.856C172.351 82.12 172.458 81.48 172.671 80.936C172.884 80.3813 173.167 79.9227 173.519 79.56C173.871 79.1973 174.276 78.9253 174.735 78.744C175.194 78.5627 175.663 78.472 176.143 78.472C177.263 78.472 178.122 78.824 178.719 79.528C179.316 80.2213 179.615 81.2827 179.615 82.712C179.615 82.776 179.615 82.8613 179.615 82.968C179.615 83.064 179.61 83.1547 179.599 83.24H173.903C173.967 84.104 174.218 84.76 174.655 85.208C175.092 85.656 175.775 85.88 176.703 85.88C177.226 85.88 177.663 85.8373 178.015 85.752C178.378 85.656 178.65 85.5653 178.831 85.48L179.039 86.728C178.858 86.824 178.538 86.9253 178.079 87.032C177.631 87.1387 177.119 87.192 176.543 87.192C175.818 87.192 175.188 87.0853 174.655 86.872C174.132 86.648 173.7 86.344 173.359 85.96C173.018 85.576 172.762 85.1227 172.591 84.6C172.431 84.0667 172.351 83.4853 172.351 82.856ZM178.063 82.04C178.074 81.368 177.903 80.8187 177.551 80.392C177.21 79.9547 176.735 79.736 176.127 79.736C175.786 79.736 175.482 79.8053 175.215 79.944C174.959 80.072 174.74 80.2427 174.559 80.456C174.378 80.6693 174.234 80.9147 174.127 81.192C174.031 81.4693 173.967 81.752 173.935 82.04H178.063ZM185.705 78.504C185.833 78.504 185.977 78.5147 186.137 78.536C186.307 78.5467 186.473 78.568 186.633 78.6C186.793 78.6213 186.937 78.648 187.065 78.68C187.203 78.7013 187.305 78.7227 187.369 78.744L187.113 80.04C186.995 79.9973 186.798 79.9493 186.521 79.896C186.254 79.832 185.907 79.8 185.481 79.8C185.203 79.8 184.926 79.832 184.649 79.896C184.382 79.9493 184.206 79.9867 184.121 80.008V87H182.633V79.032C182.985 78.904 183.422 78.7867 183.945 78.68C184.467 78.5627 185.054 78.504 185.705 78.504ZM195.66 78.68H198.812V79.928H195.66V83.768C195.66 84.184 195.692 84.5307 195.756 84.808C195.82 85.0747 195.916 85.288 196.044 85.448C196.172 85.5973 196.332 85.704 196.524 85.768C196.716 85.832 196.94 85.864 197.196 85.864C197.644 85.864 198.001 85.816 198.268 85.72C198.545 85.6133 198.737 85.5387 198.844 85.496L199.132 86.728C198.982 86.8027 198.721 86.8933 198.348 87C197.974 87.1173 197.548 87.176 197.068 87.176C196.502 87.176 196.033 87.1067 195.66 86.968C195.297 86.8187 195.004 86.6 194.78 86.312C194.556 86.024 194.396 85.672 194.3 85.256C194.214 84.8293 194.172 84.3387 194.172 83.784V76.36L195.66 76.104V78.68ZM204.657 78.504C204.785 78.504 204.929 78.5147 205.089 78.536C205.26 78.5467 205.425 78.568 205.585 78.6C205.745 78.6213 205.889 78.648 206.017 78.68C206.156 78.7013 206.257 78.7227 206.321 78.744L206.065 80.04C205.948 79.9973 205.75 79.9493 205.473 79.896C205.206 79.832 204.86 79.8 204.433 79.8C204.156 79.8 203.878 79.832 203.601 79.896C203.334 79.9493 203.158 79.9867 203.073 80.008V87H201.585V79.032C201.937 78.904 202.374 78.7867 202.897 78.68C203.42 78.5627 204.006 78.504 204.657 78.504ZM211.453 85.928C211.805 85.928 212.114 85.9227 212.381 85.912C212.658 85.8907 212.888 85.8587 213.069 85.816V83.336C212.962 83.2827 212.786 83.24 212.541 83.208C212.306 83.1653 212.018 83.144 211.677 83.144C211.453 83.144 211.213 83.16 210.957 83.192C210.712 83.224 210.482 83.2933 210.269 83.4C210.066 83.496 209.896 83.6347 209.757 83.816C209.618 83.9867 209.549 84.216 209.549 84.504C209.549 85.0373 209.72 85.4107 210.061 85.624C210.402 85.8267 210.866 85.928 211.453 85.928ZM211.325 78.472C211.922 78.472 212.424 78.552 212.829 78.712C213.245 78.8613 213.576 79.08 213.821 79.368C214.077 79.6453 214.258 79.9813 214.365 80.376C214.472 80.76 214.525 81.1867 214.525 81.656V86.856C214.397 86.8773 214.216 86.9093 213.981 86.952C213.757 86.984 213.501 87.016 213.213 87.048C212.925 87.08 212.61 87.1067 212.269 87.128C211.938 87.16 211.608 87.176 211.277 87.176C210.808 87.176 210.376 87.128 209.981 87.032C209.586 86.936 209.245 86.7867 208.957 86.584C208.669 86.3707 208.445 86.0933 208.285 85.752C208.125 85.4107 208.045 85 208.045 84.52C208.045 84.0613 208.136 83.6667 208.317 83.336C208.509 83.0053 208.765 82.7387 209.085 82.536C209.405 82.3333 209.778 82.184 210.205 82.088C210.632 81.992 211.08 81.944 211.549 81.944C211.698 81.944 211.853 81.9547 212.013 81.976C212.173 81.9867 212.322 82.008 212.461 82.04C212.61 82.0613 212.738 82.0827 212.845 82.104C212.952 82.1253 213.026 82.1413 213.069 82.152V81.736C213.069 81.4907 213.042 81.2507 212.989 81.016C212.936 80.7707 212.84 80.5573 212.701 80.376C212.562 80.184 212.37 80.0347 212.125 79.928C211.89 79.8107 211.581 79.752 211.197 79.752C210.706 79.752 210.274 79.7893 209.901 79.864C209.538 79.928 209.266 79.9973 209.085 80.072L208.909 78.84C209.101 78.7547 209.421 78.6747 209.869 78.6C210.317 78.5147 210.802 78.472 211.325 78.472ZM217.876 78.92C218.218 78.8347 218.671 78.744 219.236 78.648C219.802 78.552 220.452 78.504 221.188 78.504C221.85 78.504 222.399 78.6 222.836 78.792C223.274 78.9733 223.62 79.2347 223.876 79.576C224.143 79.9067 224.33 80.3067 224.436 80.776C224.543 81.2453 224.596 81.7627 224.596 82.328V87H223.108V82.648C223.108 82.136 223.071 81.6987 222.996 81.336C222.932 80.9733 222.82 80.68 222.66 80.456C222.5 80.232 222.287 80.072 222.02 79.976C221.754 79.8693 221.423 79.816 221.028 79.816C220.868 79.816 220.703 79.8213 220.532 79.832C220.362 79.8427 220.196 79.8587 220.036 79.88C219.887 79.8907 219.748 79.9067 219.62 79.928C219.503 79.9493 219.418 79.9653 219.364 79.976V87H217.876V78.92ZM229.88 85.928C230.488 85.928 230.936 85.848 231.224 85.688C231.522 85.528 231.672 85.272 231.672 84.92C231.672 84.5573 231.528 84.2693 231.24 84.056C230.952 83.8427 230.477 83.6027 229.816 83.336C229.496 83.208 229.186 83.08 228.888 82.952C228.6 82.8133 228.349 82.6533 228.136 82.472C227.922 82.2907 227.752 82.072 227.624 81.816C227.496 81.56 227.432 81.2453 227.432 80.872C227.432 80.136 227.704 79.5547 228.248 79.128C228.792 78.6907 229.533 78.472 230.472 78.472C230.706 78.472 230.941 78.488 231.176 78.52C231.41 78.5413 231.629 78.5733 231.832 78.616C232.034 78.648 232.21 78.6853 232.36 78.728C232.52 78.7707 232.642 78.808 232.728 78.84L232.456 80.12C232.296 80.0347 232.045 79.9493 231.704 79.864C231.362 79.768 230.952 79.72 230.472 79.72C230.056 79.72 229.693 79.8053 229.384 79.976C229.074 80.136 228.92 80.392 228.92 80.744C228.92 80.9253 228.952 81.0853 229.016 81.224C229.09 81.3627 229.197 81.4907 229.336 81.608C229.485 81.7147 229.666 81.816 229.88 81.912C230.093 82.008 230.349 82.1093 230.648 82.216C231.042 82.3653 231.394 82.5147 231.704 82.664C232.013 82.8027 232.274 82.968 232.488 83.16C232.712 83.352 232.882 83.5867 233 83.864C233.117 84.1307 233.176 84.4613 233.176 84.856C233.176 85.624 232.888 86.2053 232.312 86.6C231.746 86.9947 230.936 87.192 229.88 87.192C229.144 87.192 228.568 87.128 228.152 87C227.736 86.8827 227.453 86.792 227.304 86.728L227.576 85.448C227.746 85.512 228.018 85.608 228.392 85.736C228.765 85.864 229.261 85.928 229.88 85.928ZM238.78 85.928C239.132 85.928 239.442 85.9227 239.708 85.912C239.986 85.8907 240.215 85.8587 240.396 85.816V83.336C240.29 83.2827 240.114 83.24 239.868 83.208C239.634 83.1653 239.346 83.144 239.004 83.144C238.78 83.144 238.54 83.16 238.284 83.192C238.039 83.224 237.81 83.2933 237.596 83.4C237.394 83.496 237.223 83.6347 237.084 83.816C236.946 83.9867 236.876 84.216 236.876 84.504C236.876 85.0373 237.047 85.4107 237.388 85.624C237.73 85.8267 238.194 85.928 238.78 85.928ZM238.652 78.472C239.25 78.472 239.751 78.552 240.156 78.712C240.572 78.8613 240.903 79.08 241.148 79.368C241.404 79.6453 241.586 79.9813 241.692 80.376C241.799 80.76 241.852 81.1867 241.852 81.656V86.856C241.724 86.8773 241.543 86.9093 241.308 86.952C241.084 86.984 240.828 87.016 240.54 87.048C240.252 87.08 239.938 87.1067 239.596 87.128C239.266 87.16 238.935 87.176 238.604 87.176C238.135 87.176 237.703 87.128 237.308 87.032C236.914 86.936 236.572 86.7867 236.284 86.584C235.996 86.3707 235.772 86.0933 235.612 85.752C235.452 85.4107 235.372 85 235.372 84.52C235.372 84.0613 235.463 83.6667 235.644 83.336C235.836 83.0053 236.092 82.7387 236.412 82.536C236.732 82.3333 237.106 82.184 237.532 82.088C237.959 81.992 238.407 81.944 238.876 81.944C239.026 81.944 239.18 81.9547 239.34 81.976C239.5 81.9867 239.65 82.008 239.788 82.04C239.938 82.0613 240.066 82.0827 240.172 82.104C240.279 82.1253 240.354 82.1413 240.396 82.152V81.736C240.396 81.4907 240.37 81.2507 240.316 81.016C240.263 80.7707 240.167 80.5573 240.028 80.376C239.89 80.184 239.698 80.0347 239.452 79.928C239.218 79.8107 238.908 79.752 238.524 79.752C238.034 79.752 237.602 79.7893 237.228 79.864C236.866 79.928 236.594 79.9973 236.412 80.072L236.236 78.84C236.428 78.7547 236.748 78.6747 237.196 78.6C237.644 78.5147 238.13 78.472 238.652 78.472ZM248.82 87.192C248.148 87.192 247.556 87.0853 247.044 86.872C246.542 86.6587 246.116 86.36 245.764 85.976C245.422 85.592 245.166 85.1387 244.996 84.616C244.825 84.0827 244.74 83.496 244.74 82.856C244.74 82.216 244.83 81.6293 245.012 81.096C245.204 80.5627 245.47 80.104 245.812 79.72C246.153 79.3253 246.569 79.0213 247.06 78.808C247.561 78.584 248.116 78.472 248.724 78.472C249.097 78.472 249.47 78.504 249.844 78.568C250.217 78.632 250.574 78.7333 250.916 78.872L250.58 80.136C250.356 80.0293 250.094 79.944 249.796 79.88C249.508 79.816 249.198 79.784 248.868 79.784C248.036 79.784 247.396 80.0453 246.948 80.568C246.51 81.0907 246.292 81.8533 246.292 82.856C246.292 83.304 246.34 83.7147 246.436 84.088C246.542 84.4613 246.702 84.7813 246.916 85.048C247.14 85.3147 247.422 85.5227 247.764 85.672C248.105 85.8107 248.521 85.88 249.012 85.88C249.406 85.88 249.764 85.8427 250.084 85.768C250.404 85.6933 250.654 85.6133 250.836 85.528L251.044 86.776C250.958 86.8293 250.836 86.8827 250.676 86.936C250.516 86.9787 250.334 87.016 250.132 87.048C249.929 87.0907 249.71 87.1227 249.476 87.144C249.252 87.176 249.033 87.192 248.82 87.192ZM254.913 78.68H258.065V79.928H254.913V83.768C254.913 84.184 254.945 84.5307 255.009 84.808C255.073 85.0747 255.169 85.288 255.297 85.448C255.425 85.5973 255.585 85.704 255.777 85.768C255.969 85.832 256.193 85.864 256.449 85.864C256.897 85.864 257.255 85.816 257.521 85.72C257.799 85.6133 257.991 85.5387 258.097 85.496L258.385 86.728C258.236 86.8027 257.975 86.8933 257.601 87C257.228 87.1173 256.801 87.176 256.321 87.176C255.756 87.176 255.287 87.1067 254.913 86.968C254.551 86.8187 254.257 86.6 254.033 86.312C253.809 86.024 253.649 85.672 253.553 85.256C253.468 84.8293 253.425 84.3387 253.425 83.784V76.36L254.913 76.104V78.68ZM262.327 87H260.839V78.68H262.327V87ZM261.575 77.176C261.308 77.176 261.079 77.0907 260.887 76.92C260.705 76.7387 260.615 76.4987 260.615 76.2C260.615 75.9013 260.705 75.6667 260.887 75.496C261.079 75.3147 261.308 75.224 261.575 75.224C261.841 75.224 262.065 75.3147 262.247 75.496C262.439 75.6667 262.535 75.9013 262.535 76.2C262.535 76.4987 262.439 76.7387 262.247 76.92C262.065 77.0907 261.841 77.176 261.575 77.176ZM273.11 82.84C273.11 83.5013 273.014 84.0987 272.822 84.632C272.63 85.1653 272.358 85.624 272.006 86.008C271.664 86.392 271.254 86.6907 270.774 86.904C270.294 87.1067 269.771 87.208 269.206 87.208C268.64 87.208 268.118 87.1067 267.638 86.904C267.158 86.6907 266.742 86.392 266.39 86.008C266.048 85.624 265.782 85.1653 265.59 84.632C265.398 84.0987 265.302 83.5013 265.302 82.84C265.302 82.1893 265.398 81.5973 265.59 81.064C265.782 80.52 266.048 80.056 266.39 79.672C266.742 79.288 267.158 78.9947 267.638 78.792C268.118 78.5787 268.64 78.472 269.206 78.472C269.771 78.472 270.294 78.5787 270.774 78.792C271.254 78.9947 271.664 79.288 272.006 79.672C272.358 80.056 272.63 80.52 272.822 81.064C273.014 81.5973 273.11 82.1893 273.11 82.84ZM271.558 82.84C271.558 81.9013 271.344 81.16 270.918 80.616C270.502 80.0613 269.931 79.784 269.206 79.784C268.48 79.784 267.904 80.0613 267.478 80.616C267.062 81.16 266.854 81.9013 266.854 82.84C266.854 83.7787 267.062 84.5253 267.478 85.08C267.904 85.624 268.48 85.896 269.206 85.896C269.931 85.896 270.502 85.624 270.918 85.08C271.344 84.5253 271.558 83.7787 271.558 82.84ZM276.083 78.92C276.424 78.8347 276.878 78.744 277.443 78.648C278.008 78.552 278.659 78.504 279.395 78.504C280.056 78.504 280.606 78.6 281.043 78.792C281.48 78.9733 281.827 79.2347 282.083 79.576C282.35 79.9067 282.536 80.3067 282.643 80.776C282.75 81.2453 282.803 81.7627 282.803 82.328V87H281.315V82.648C281.315 82.136 281.278 81.6987 281.203 81.336C281.139 80.9733 281.027 80.68 280.867 80.456C280.707 80.232 280.494 80.072 280.227 79.976C279.96 79.8693 279.63 79.816 279.235 79.816C279.075 79.816 278.91 79.8213 278.739 79.832C278.568 79.8427 278.403 79.8587 278.243 79.88C278.094 79.8907 277.955 79.9067 277.827 79.928C277.71 79.9493 277.624 79.9653 277.571 79.976V87H276.083V78.92Z" fill="#2C3437" fill-opacity="0.7"/>
<defs>
<filter id="filter0_d" x="0" y="0" width="384" height="155" filterUnits="userSpaceOnUse" color-interpolation-filters="sRGB">
<feFlood flood-opacity="0" result="BackgroundImageFix"/>
<feColorMatrix in="SourceAlpha" type="matrix" values="0 0 0 0 0 0 0 0 0 0 0 0 0 0 0 0 0 0 127 0"/>
<feOffset dy="9"/>
<feGaussianBlur stdDeviation="20"/>
<feColorMatrix type="matrix" values="0 0 0 0 0 0 0 0 0 0 0 0 0 0 0 0 0 0 0.15 0"/>
<feBlend mode="normal" in2="BackgroundImageFix" result="effect1_dropShadow"/>
<feBlend mode="normal" in="SourceGraphic" in2="effect1_dropShadow" result="shape"/>
</filter>
</defs>
</svg>
