<svg width="384" height="155" viewBox="0 0 384 155" fill="none" xmlns="http://www.w3.org/2000/svg">
<g filter="url(#filter0_d)">
<rect x="40" y="31" width="304" height="75" rx="12" fill="white"/>
</g>
<path d="M117.494 65V52.526H125.504V54.452H119.762V57.53H124.874V59.42H119.762V63.074H125.936V65H117.494ZM132.448 58.664L134.446 55.586H136.732L133.636 60.032C134.284 60.872 134.902 61.724 135.49 62.588C136.09 63.44 136.582 64.244 136.966 65H134.608C134.5 64.772 134.356 64.514 134.176 64.226C134.007 63.926 133.821 63.62 133.618 63.308C133.425 62.984 133.221 62.666 133.005 62.354C132.79 62.042 132.58 61.748 132.375 61.472C131.955 62.012 131.541 62.612 131.133 63.272C130.737 63.92 130.407 64.496 130.143 65H127.911C128.091 64.64 128.307 64.256 128.559 63.848C128.811 63.44 129.081 63.026 129.369 62.606C129.657 62.174 129.951 61.748 130.251 61.328C130.563 60.896 130.869 60.488 131.169 60.104L128.055 55.586H130.45L132.448 58.664ZM139.473 53.102L141.651 52.742V55.586H144.999V57.404H141.651V61.238C141.651 61.994 141.771 62.534 142.011 62.858C142.251 63.182 142.659 63.344 143.235 63.344C143.631 63.344 143.979 63.302 144.279 63.218C144.591 63.134 144.837 63.056 145.017 62.984L145.377 64.712C145.125 64.82 144.795 64.928 144.387 65.036C143.979 65.156 143.499 65.216 142.947 65.216C142.275 65.216 141.711 65.126 141.255 64.946C140.811 64.766 140.457 64.508 140.193 64.172C139.929 63.824 139.743 63.41 139.635 62.93C139.527 62.438 139.473 61.88 139.473 61.256V53.102ZM153.458 57.548C153.278 57.488 153.026 57.428 152.702 57.368C152.39 57.296 152.024 57.26 151.604 57.26C151.364 57.26 151.106 57.284 150.83 57.332C150.566 57.38 150.38 57.422 150.272 57.458V65H148.094V56.036C148.514 55.88 149.036 55.736 149.66 55.604C150.296 55.46 150.998 55.388 151.766 55.388C151.91 55.388 152.078 55.4 152.27 55.424C152.462 55.436 152.654 55.46 152.846 55.496C153.038 55.52 153.224 55.556 153.404 55.604C153.584 55.64 153.728 55.676 153.836 55.712L153.458 57.548ZM155.822 60.338C155.822 59.51 155.942 58.784 156.182 58.16C156.434 57.536 156.764 57.02 157.172 56.612C157.58 56.192 158.048 55.88 158.576 55.676C159.104 55.46 159.644 55.352 160.196 55.352C161.492 55.352 162.5 55.754 163.22 56.558C163.952 57.362 164.318 58.562 164.318 60.158C164.318 60.278 164.312 60.416 164.3 60.572C164.3 60.716 164.294 60.848 164.282 60.968H158.072C158.132 61.724 158.396 62.312 158.864 62.732C159.344 63.14 160.034 63.344 160.934 63.344C161.462 63.344 161.942 63.296 162.374 63.2C162.818 63.104 163.166 63.002 163.418 62.894L163.706 64.676C163.586 64.736 163.418 64.802 163.202 64.874C162.998 64.934 162.758 64.988 162.482 65.036C162.218 65.096 161.93 65.144 161.618 65.18C161.306 65.216 160.988 65.234 160.664 65.234C159.836 65.234 159.116 65.114 158.504 64.874C157.892 64.622 157.388 64.28 156.992 63.848C156.596 63.404 156.302 62.888 156.11 62.3C155.918 61.7 155.822 61.046 155.822 60.338ZM162.14 59.366C162.14 59.066 162.098 58.784 162.014 58.52C161.93 58.244 161.804 58.01 161.636 57.818C161.48 57.614 161.282 57.458 161.042 57.35C160.814 57.23 160.538 57.17 160.214 57.17C159.878 57.17 159.584 57.236 159.332 57.368C159.08 57.488 158.864 57.65 158.684 57.854C158.516 58.058 158.384 58.292 158.288 58.556C158.192 58.82 158.126 59.09 158.09 59.366H162.14ZM172.981 60.05C172.981 59.066 172.855 58.358 172.603 57.926C172.363 57.482 171.907 57.26 171.235 57.26C170.995 57.26 170.731 57.278 170.443 57.314C170.155 57.35 169.939 57.38 169.795 57.404V65H167.617V55.892C168.037 55.772 168.583 55.658 169.255 55.55C169.939 55.442 170.659 55.388 171.415 55.388C172.063 55.388 172.591 55.472 172.999 55.64C173.419 55.808 173.767 56.03 174.043 56.306C174.175 56.21 174.343 56.108 174.547 56C174.751 55.892 174.979 55.796 175.231 55.712C175.483 55.616 175.747 55.538 176.023 55.478C176.311 55.418 176.599 55.388 176.887 55.388C177.619 55.388 178.219 55.496 178.687 55.712C179.167 55.916 179.539 56.21 179.803 56.594C180.079 56.966 180.265 57.422 180.361 57.962C180.469 58.49 180.523 59.072 180.523 59.708V65H178.345V60.05C178.345 59.066 178.225 58.358 177.985 57.926C177.745 57.482 177.283 57.26 176.599 57.26C176.251 57.26 175.921 57.32 175.609 57.44C175.297 57.548 175.063 57.656 174.907 57.764C175.003 58.064 175.069 58.382 175.105 58.718C175.141 59.054 175.159 59.414 175.159 59.798V65H172.981V60.05ZM183.659 60.338C183.659 59.51 183.779 58.784 184.019 58.16C184.271 57.536 184.601 57.02 185.009 56.612C185.417 56.192 185.885 55.88 186.413 55.676C186.941 55.46 187.481 55.352 188.033 55.352C189.329 55.352 190.337 55.754 191.057 56.558C191.789 57.362 192.155 58.562 192.155 60.158C192.155 60.278 192.149 60.416 192.137 60.572C192.137 60.716 192.131 60.848 192.119 60.968H185.909C185.969 61.724 186.233 62.312 186.701 62.732C187.181 63.14 187.871 63.344 188.771 63.344C189.299 63.344 189.779 63.296 190.211 63.2C190.655 63.104 191.003 63.002 191.255 62.894L191.543 64.676C191.423 64.736 191.255 64.802 191.039 64.874C190.835 64.934 190.595 64.988 190.319 65.036C190.055 65.096 189.767 65.144 189.455 65.18C189.143 65.216 188.825 65.234 188.501 65.234C187.673 65.234 186.953 65.114 186.341 64.874C185.729 64.622 185.225 64.28 184.829 63.848C184.433 63.404 184.139 62.888 183.947 62.3C183.755 61.7 183.659 61.046 183.659 60.338ZM189.977 59.366C189.977 59.066 189.935 58.784 189.851 58.52C189.767 58.244 189.641 58.01 189.473 57.818C189.317 57.614 189.119 57.458 188.879 57.35C188.651 57.23 188.375 57.17 188.051 57.17C187.715 57.17 187.421 57.236 187.169 57.368C186.917 57.488 186.701 57.65 186.521 57.854C186.353 58.058 186.221 58.292 186.125 58.556C186.029 58.82 185.963 59.09 185.927 59.366H189.977ZM198.731 65.18C198.083 65.168 197.543 65.096 197.111 64.964C196.691 64.832 196.355 64.646 196.103 64.406C195.851 64.154 195.671 63.848 195.563 63.488C195.467 63.116 195.419 62.696 195.419 62.228V51.392L197.597 51.032V61.814C197.597 62.078 197.615 62.3 197.651 62.48C197.699 62.66 197.777 62.816 197.885 62.948C197.993 63.068 198.137 63.164 198.317 63.236C198.509 63.296 198.749 63.344 199.037 63.38L198.731 65.18ZM209.474 55.586C208.502 59.162 207.374 62.402 206.09 65.306C205.85 65.846 205.604 66.308 205.352 66.692C205.1 67.076 204.818 67.394 204.506 67.646C204.194 67.898 203.846 68.078 203.462 68.186C203.078 68.306 202.634 68.366 202.13 68.366C201.794 68.366 201.458 68.33 201.122 68.258C200.798 68.186 200.552 68.108 200.384 68.024L200.78 66.278C201.212 66.446 201.638 66.53 202.058 66.53C202.622 66.53 203.06 66.392 203.372 66.116C203.696 65.852 203.978 65.438 204.218 64.874C203.534 63.554 202.874 62.114 202.238 60.554C201.614 58.994 201.056 57.338 200.564 55.586H202.886C203.006 56.09 203.15 56.636 203.318 57.224C203.498 57.812 203.69 58.412 203.894 59.024C204.098 59.624 204.314 60.224 204.542 60.824C204.77 61.424 204.998 61.982 205.226 62.498C205.61 61.43 205.97 60.296 206.306 59.096C206.642 57.884 206.948 56.714 207.224 55.586H209.474ZM225.296 63.038V65H217.412V52.526H219.68V63.038H225.296ZM236.247 60.284C236.247 61.028 236.139 61.706 235.923 62.318C235.707 62.93 235.401 63.452 235.005 63.884C234.609 64.316 234.129 64.652 233.565 64.892C233.013 65.132 232.401 65.252 231.729 65.252C231.057 65.252 230.445 65.132 229.893 64.892C229.341 64.652 228.867 64.316 228.471 63.884C228.075 63.452 227.763 62.93 227.535 62.318C227.319 61.706 227.211 61.028 227.211 60.284C227.211 59.54 227.319 58.868 227.535 58.268C227.763 57.656 228.075 57.134 228.471 56.702C228.879 56.27 229.359 55.94 229.911 55.712C230.463 55.472 231.069 55.352 231.729 55.352C232.389 55.352 232.995 55.472 233.547 55.712C234.111 55.94 234.591 56.27 234.987 56.702C235.383 57.134 235.689 57.656 235.905 58.268C236.133 58.868 236.247 59.54 236.247 60.284ZM234.015 60.284C234.015 59.348 233.811 58.61 233.403 58.07C233.007 57.518 232.449 57.242 231.729 57.242C231.009 57.242 230.445 57.518 230.037 58.07C229.641 58.61 229.443 59.348 229.443 60.284C229.443 61.232 229.641 61.982 230.037 62.534C230.445 63.086 231.009 63.362 231.729 63.362C232.449 63.362 233.007 63.086 233.403 62.534C233.811 61.982 234.015 61.232 234.015 60.284ZM244.903 59.078C244.627 60.134 244.327 61.166 244.003 62.174C243.691 63.17 243.379 64.112 243.067 65H241.285C241.045 64.448 240.793 63.818 240.529 63.11C240.265 62.402 240.001 61.646 239.737 60.842C239.473 60.038 239.209 59.192 238.945 58.304C238.681 57.416 238.423 56.51 238.171 55.586H240.475C240.583 56.09 240.709 56.636 240.853 57.224C240.997 57.8 241.147 58.394 241.303 59.006C241.459 59.606 241.621 60.194 241.789 60.77C241.957 61.346 242.125 61.874 242.293 62.354C242.473 61.802 242.647 61.232 242.815 60.644C242.995 60.056 243.163 59.468 243.319 58.88C243.475 58.292 243.619 57.722 243.751 57.17C243.895 56.606 244.021 56.078 244.129 55.586H245.803C245.911 56.078 246.031 56.606 246.163 57.17C246.295 57.722 246.433 58.292 246.577 58.88C246.733 59.468 246.895 60.056 247.063 60.644C247.243 61.232 247.423 61.802 247.603 62.354C247.759 61.874 247.921 61.346 248.089 60.77C248.257 60.194 248.419 59.606 248.575 59.006C248.743 58.394 248.899 57.8 249.043 57.224C249.187 56.636 249.313 56.09 249.421 55.586H251.671C251.419 56.51 251.161 57.416 250.897 58.304C250.633 59.192 250.369 60.038 250.105 60.842C249.841 61.646 249.577 62.402 249.313 63.11C249.049 63.818 248.791 64.448 248.539 65H246.775C246.463 64.112 246.139 63.17 245.803 62.174C245.479 61.166 245.179 60.134 244.903 59.078ZM259.622 65V52.526H267.506V54.452H261.89V57.638H266.876V59.564H261.89V65H259.622ZM269.685 60.338C269.685 59.51 269.805 58.784 270.045 58.16C270.297 57.536 270.627 57.02 271.035 56.612C271.443 56.192 271.911 55.88 272.439 55.676C272.967 55.46 273.507 55.352 274.059 55.352C275.355 55.352 276.363 55.754 277.083 56.558C277.815 57.362 278.181 58.562 278.181 60.158C278.181 60.278 278.175 60.416 278.163 60.572C278.163 60.716 278.157 60.848 278.145 60.968H271.935C271.995 61.724 272.259 62.312 272.727 62.732C273.207 63.14 273.897 63.344 274.797 63.344C275.325 63.344 275.805 63.296 276.237 63.2C276.681 63.104 277.029 63.002 277.281 62.894L277.569 64.676C277.449 64.736 277.281 64.802 277.065 64.874C276.861 64.934 276.621 64.988 276.345 65.036C276.081 65.096 275.793 65.144 275.481 65.18C275.169 65.216 274.851 65.234 274.527 65.234C273.699 65.234 272.979 65.114 272.367 64.874C271.755 64.622 271.251 64.28 270.855 63.848C270.459 63.404 270.165 62.888 269.973 62.3C269.781 61.7 269.685 61.046 269.685 60.338ZM276.003 59.366C276.003 59.066 275.961 58.784 275.877 58.52C275.793 58.244 275.667 58.01 275.499 57.818C275.343 57.614 275.145 57.458 274.905 57.35C274.677 57.23 274.401 57.17 274.077 57.17C273.741 57.17 273.447 57.236 273.195 57.368C272.943 57.488 272.727 57.65 272.547 57.854C272.379 58.058 272.247 58.292 272.151 58.556C272.055 58.82 271.989 59.09 271.953 59.366H276.003ZM280.958 60.338C280.958 59.51 281.078 58.784 281.318 58.16C281.57 57.536 281.9 57.02 282.308 56.612C282.716 56.192 283.184 55.88 283.712 55.676C284.24 55.46 284.78 55.352 285.332 55.352C286.628 55.352 287.636 55.754 288.356 56.558C289.088 57.362 289.454 58.562 289.454 60.158C289.454 60.278 289.448 60.416 289.436 60.572C289.436 60.716 289.43 60.848 289.418 60.968H283.208C283.268 61.724 283.532 62.312 284 62.732C284.48 63.14 285.17 63.344 286.07 63.344C286.598 63.344 287.078 63.296 287.51 63.2C287.954 63.104 288.302 63.002 288.554 62.894L288.842 64.676C288.722 64.736 288.554 64.802 288.338 64.874C288.134 64.934 287.894 64.988 287.618 65.036C287.354 65.096 287.066 65.144 286.754 65.18C286.442 65.216 286.124 65.234 285.8 65.234C284.972 65.234 284.252 65.114 283.64 64.874C283.028 64.622 282.524 64.28 282.128 63.848C281.732 63.404 281.438 62.888 281.246 62.3C281.054 61.7 280.958 61.046 280.958 60.338ZM287.276 59.366C287.276 59.066 287.234 58.784 287.15 58.52C287.066 58.244 286.94 58.01 286.772 57.818C286.616 57.614 286.418 57.458 286.178 57.35C285.95 57.23 285.674 57.17 285.35 57.17C285.014 57.17 284.72 57.236 284.468 57.368C284.216 57.488 284 57.65 283.82 57.854C283.652 58.058 283.52 58.292 283.424 58.556C283.328 58.82 283.262 59.09 283.226 59.366H287.276ZM295.111 63.434C295.687 63.434 296.107 63.368 296.371 63.236C296.635 63.092 296.767 62.852 296.767 62.516C296.767 62.204 296.623 61.946 296.335 61.742C296.059 61.538 295.597 61.316 294.949 61.076C294.553 60.932 294.187 60.782 293.851 60.626C293.527 60.458 293.245 60.266 293.005 60.05C292.765 59.834 292.573 59.576 292.429 59.276C292.297 58.964 292.231 58.586 292.231 58.142C292.231 57.278 292.549 56.6 293.185 56.108C293.821 55.604 294.685 55.352 295.777 55.352C296.329 55.352 296.857 55.406 297.361 55.514C297.865 55.61 298.243 55.706 298.495 55.802L298.099 57.566C297.859 57.458 297.553 57.362 297.181 57.278C296.809 57.182 296.377 57.134 295.885 57.134C295.441 57.134 295.081 57.212 294.805 57.368C294.529 57.512 294.391 57.74 294.391 58.052C294.391 58.208 294.415 58.346 294.463 58.466C294.523 58.586 294.619 58.7 294.751 58.808C294.883 58.904 295.057 59.006 295.273 59.114C295.489 59.21 295.753 59.312 296.065 59.42C296.581 59.612 297.019 59.804 297.379 59.996C297.739 60.176 298.033 60.386 298.261 60.626C298.501 60.854 298.675 61.118 298.783 61.418C298.891 61.718 298.945 62.078 298.945 62.498C298.945 63.398 298.609 64.082 297.937 64.55C297.277 65.006 296.329 65.234 295.093 65.234C294.265 65.234 293.599 65.162 293.095 65.018C292.591 64.886 292.237 64.778 292.033 64.694L292.411 62.876C292.735 63.008 293.119 63.134 293.563 63.254C294.019 63.374 294.535 63.434 295.111 63.434Z" fill="#575D69"/>
<path d="M120.192 85.48C121.013 85.48 121.589 85.352 121.92 85.096C122.251 84.8293 122.416 84.4933 122.416 84.088C122.416 83.7893 122.341 83.5333 122.192 83.32C122.053 83.1067 121.861 82.92 121.616 82.76C121.381 82.6 121.104 82.456 120.784 82.328C120.475 82.2 120.155 82.0773 119.824 81.96C119.504 81.8427 119.184 81.7147 118.864 81.576C118.555 81.4267 118.277 81.2507 118.032 81.048C117.787 80.8347 117.584 80.584 117.424 80.296C117.275 79.9973 117.2 79.6347 117.2 79.208C117.2 78.4507 117.424 77.832 117.872 77.352C118.331 76.8613 118.992 76.552 119.856 76.424V74.584H121.184V76.376C121.653 76.3973 122.091 76.456 122.496 76.552C122.901 76.648 123.221 76.7387 123.456 76.824L123.152 78.072C122.896 77.976 122.576 77.88 122.192 77.784C121.808 77.6773 121.328 77.624 120.752 77.624C120.112 77.624 119.616 77.7467 119.264 77.992C118.923 78.2373 118.752 78.584 118.752 79.032C118.752 79.2773 118.8 79.4853 118.896 79.656C119.003 79.8267 119.152 79.9813 119.344 80.12C119.536 80.248 119.76 80.3653 120.016 80.472C120.283 80.5787 120.576 80.6907 120.896 80.808C121.312 80.968 121.707 81.1333 122.08 81.304C122.453 81.4747 122.779 81.6827 123.056 81.928C123.344 82.1627 123.573 82.4453 123.744 82.776C123.915 83.1067 124 83.5067 124 83.976C124 84.7333 123.771 85.3467 123.312 85.816C122.853 86.2747 122.144 86.5627 121.184 86.68V88.744H119.856V86.728C119.109 86.7067 118.501 86.6267 118.032 86.488C117.563 86.3387 117.211 86.2 116.976 86.072L117.376 84.872C117.696 85.0213 118.08 85.16 118.528 85.288C118.976 85.416 119.531 85.48 120.192 85.48ZM126.711 81.448C126.711 79.592 127.037 78.1627 127.687 77.16C128.349 76.1573 129.261 75.656 130.423 75.656C131.586 75.656 132.493 76.1573 133.143 77.16C133.805 78.1627 134.135 79.592 134.135 81.448C134.135 83.304 133.805 84.7333 133.143 85.736C132.493 86.7387 131.586 87.24 130.423 87.24C129.261 87.24 128.349 86.7387 127.687 85.736C127.037 84.7333 126.711 83.304 126.711 81.448ZM132.567 81.448C132.567 80.84 132.53 80.264 132.455 79.72C132.391 79.176 132.274 78.7013 132.103 78.296C131.943 77.8907 131.725 77.5707 131.447 77.336C131.17 77.0907 130.829 76.968 130.423 76.968C130.018 76.968 129.677 77.0907 129.399 77.336C129.122 77.5707 128.898 77.8907 128.727 78.296C128.567 78.7013 128.45 79.176 128.375 79.72C128.311 80.264 128.279 80.84 128.279 81.448C128.279 82.056 128.311 82.632 128.375 83.176C128.45 83.72 128.567 84.1947 128.727 84.6C128.898 85.0053 129.122 85.3307 129.399 85.576C129.677 85.8107 130.018 85.928 130.423 85.928C130.829 85.928 131.17 85.8107 131.447 85.576C131.725 85.3307 131.943 85.0053 132.103 84.6C132.274 84.1947 132.391 83.72 132.455 83.176C132.53 82.632 132.567 82.056 132.567 81.448ZM138.863 86.136C138.863 86.424 138.767 86.6747 138.575 86.888C138.383 87.1013 138.121 87.208 137.791 87.208C137.46 87.208 137.199 87.1013 137.007 86.888C136.815 86.6747 136.719 86.424 136.719 86.136C136.719 85.848 136.815 85.5973 137.007 85.384C137.199 85.1707 137.46 85.064 137.791 85.064C138.121 85.064 138.383 85.1707 138.575 85.384C138.767 85.5973 138.863 85.848 138.863 86.136ZM141.44 81.448C141.44 79.592 141.765 78.1627 142.416 77.16C143.077 76.1573 143.989 75.656 145.152 75.656C146.315 75.656 147.221 76.1573 147.872 77.16C148.533 78.1627 148.864 79.592 148.864 81.448C148.864 83.304 148.533 84.7333 147.872 85.736C147.221 86.7387 146.315 87.24 145.152 87.24C143.989 87.24 143.077 86.7387 142.416 85.736C141.765 84.7333 141.44 83.304 141.44 81.448ZM147.296 81.448C147.296 80.84 147.259 80.264 147.184 79.72C147.12 79.176 147.003 78.7013 146.832 78.296C146.672 77.8907 146.453 77.5707 146.176 77.336C145.899 77.0907 145.557 76.968 145.152 76.968C144.747 76.968 144.405 77.0907 144.128 77.336C143.851 77.5707 143.627 77.8907 143.456 78.296C143.296 78.7013 143.179 79.176 143.104 79.72C143.04 80.264 143.008 80.84 143.008 81.448C143.008 82.056 143.04 82.632 143.104 83.176C143.179 83.72 143.296 84.1947 143.456 84.6C143.627 85.0053 143.851 85.3307 144.128 85.576C144.405 85.8107 144.747 85.928 145.152 85.928C145.557 85.928 145.899 85.8107 146.176 85.576C146.453 85.3307 146.672 85.0053 146.832 84.6C147.003 84.1947 147.12 83.72 147.184 83.176C147.259 82.632 147.296 82.056 147.296 81.448ZM151.351 81.448C151.351 79.592 151.677 78.1627 152.327 77.16C152.989 76.1573 153.901 75.656 155.063 75.656C156.226 75.656 157.133 76.1573 157.783 77.16C158.445 78.1627 158.775 79.592 158.775 81.448C158.775 83.304 158.445 84.7333 157.783 85.736C157.133 86.7387 156.226 87.24 155.063 87.24C153.901 87.24 152.989 86.7387 152.327 85.736C151.677 84.7333 151.351 83.304 151.351 81.448ZM157.207 81.448C157.207 80.84 157.17 80.264 157.095 79.72C157.031 79.176 156.914 78.7013 156.743 78.296C156.583 77.8907 156.365 77.5707 156.087 77.336C155.81 77.0907 155.469 76.968 155.063 76.968C154.658 76.968 154.317 77.0907 154.039 77.336C153.762 77.5707 153.538 77.8907 153.367 78.296C153.207 78.7013 153.09 79.176 153.015 79.72C152.951 80.264 152.919 80.84 152.919 81.448C152.919 82.056 152.951 82.632 153.015 83.176C153.09 83.72 153.207 84.1947 153.367 84.6C153.538 85.0053 153.762 85.3307 154.039 85.576C154.317 85.8107 154.658 85.928 155.063 85.928C155.469 85.928 155.81 85.8107 156.087 85.576C156.365 85.3307 156.583 85.0053 156.743 84.6C156.914 84.1947 157.031 83.72 157.095 83.176C157.17 82.632 157.207 82.056 157.207 81.448ZM161.951 78.2C162.559 77.9653 163.151 77.6667 163.727 77.304C164.303 76.9307 164.831 76.4667 165.311 75.912H166.367V87H164.879V77.976C164.751 78.0933 164.591 78.216 164.399 78.344C164.217 78.472 164.015 78.5947 163.791 78.712C163.577 78.8293 163.348 78.9413 163.103 79.048C162.868 79.1547 162.639 79.2453 162.415 79.32L161.951 78.2ZM182.013 82.856C182.013 81.8853 181.773 81.1387 181.293 80.616C180.813 80.0933 180.173 79.832 179.373 79.832C178.925 79.832 178.573 79.848 178.317 79.88C178.072 79.912 177.874 79.9493 177.725 79.992V85.24C177.906 85.3893 178.168 85.5333 178.509 85.672C178.85 85.8107 179.224 85.88 179.629 85.88C180.056 85.88 180.418 85.8053 180.717 85.656C181.026 85.496 181.277 85.2827 181.469 85.016C181.661 84.7387 181.8 84.4187 181.885 84.056C181.97 83.6827 182.013 83.2827 182.013 82.856ZM183.565 82.856C183.565 83.4853 183.48 84.0667 183.309 84.6C183.149 85.1333 182.909 85.592 182.589 85.976C182.269 86.36 181.874 86.6587 181.405 86.872C180.946 87.0853 180.418 87.192 179.821 87.192C179.341 87.192 178.914 87.128 178.541 87C178.178 86.872 177.906 86.7493 177.725 86.632V89.96H176.237V78.936C176.589 78.8507 177.026 78.76 177.549 78.664C178.082 78.5573 178.696 78.504 179.389 78.504C180.029 78.504 180.605 78.6053 181.117 78.808C181.629 79.0107 182.066 79.2987 182.429 79.672C182.792 80.0453 183.069 80.504 183.261 81.048C183.464 81.5813 183.565 82.184 183.565 82.856ZM186.075 82.856C186.075 82.12 186.181 81.48 186.395 80.936C186.608 80.3813 186.891 79.9227 187.243 79.56C187.595 79.1973 188 78.9253 188.459 78.744C188.917 78.5627 189.387 78.472 189.867 78.472C190.987 78.472 191.845 78.824 192.443 79.528C193.04 80.2213 193.339 81.2827 193.339 82.712C193.339 82.776 193.339 82.8613 193.339 82.968C193.339 83.064 193.333 83.1547 193.323 83.24H187.627C187.691 84.104 187.941 84.76 188.379 85.208C188.816 85.656 189.499 85.88 190.427 85.88C190.949 85.88 191.387 85.8373 191.739 85.752C192.101 85.656 192.373 85.5653 192.555 85.48L192.763 86.728C192.581 86.824 192.261 86.9253 191.803 87.032C191.355 87.1387 190.843 87.192 190.267 87.192C189.541 87.192 188.912 87.0853 188.379 86.872C187.856 86.648 187.424 86.344 187.083 85.96C186.741 85.576 186.485 85.1227 186.315 84.6C186.155 84.0667 186.075 83.4853 186.075 82.856ZM191.787 82.04C191.797 81.368 191.627 80.8187 191.275 80.392C190.933 79.9547 190.459 79.736 189.851 79.736C189.509 79.736 189.205 79.8053 188.939 79.944C188.683 80.072 188.464 80.2427 188.283 80.456C188.101 80.6693 187.957 80.9147 187.851 81.192C187.755 81.4693 187.691 81.752 187.659 82.04H191.787ZM199.428 78.504C199.556 78.504 199.7 78.5147 199.86 78.536C200.031 78.5467 200.196 78.568 200.356 78.6C200.516 78.6213 200.66 78.648 200.788 78.68C200.927 78.7013 201.028 78.7227 201.092 78.744L200.836 80.04C200.719 79.9973 200.522 79.9493 200.244 79.896C199.978 79.832 199.631 79.8 199.204 79.8C198.927 79.8 198.65 79.832 198.372 79.896C198.106 79.9493 197.93 79.9867 197.844 80.008V87H196.356V79.032C196.708 78.904 197.146 78.7867 197.668 78.68C198.191 78.5627 198.778 78.504 199.428 78.504ZM209.383 78.68H212.535V79.928H209.383V83.768C209.383 84.184 209.415 84.5307 209.479 84.808C209.543 85.0747 209.639 85.288 209.767 85.448C209.895 85.5973 210.055 85.704 210.247 85.768C210.439 85.832 210.663 85.864 210.919 85.864C211.367 85.864 211.725 85.816 211.991 85.72C212.269 85.6133 212.461 85.5387 212.567 85.496L212.855 86.728C212.706 86.8027 212.445 86.8933 212.071 87C211.698 87.1173 211.271 87.176 210.791 87.176C210.226 87.176 209.757 87.1067 209.383 86.968C209.021 86.8187 208.727 86.6 208.503 86.312C208.279 86.024 208.119 85.672 208.023 85.256C207.938 84.8293 207.895 84.3387 207.895 83.784V76.36L209.383 76.104V78.68ZM218.381 78.504C218.509 78.504 218.653 78.5147 218.813 78.536C218.983 78.5467 219.149 78.568 219.309 78.6C219.469 78.6213 219.613 78.648 219.741 78.68C219.879 78.7013 219.981 78.7227 220.045 78.744L219.789 80.04C219.671 79.9973 219.474 79.9493 219.197 79.896C218.93 79.832 218.583 79.8 218.157 79.8C217.879 79.8 217.602 79.832 217.325 79.896C217.058 79.9493 216.882 79.9867 216.797 80.008V87H215.309V79.032C215.661 78.904 216.098 78.7867 216.621 78.68C217.143 78.5627 217.73 78.504 218.381 78.504ZM225.177 85.928C225.529 85.928 225.838 85.9227 226.105 85.912C226.382 85.8907 226.611 85.8587 226.793 85.816V83.336C226.686 83.2827 226.51 83.24 226.265 83.208C226.03 83.1653 225.742 83.144 225.401 83.144C225.177 83.144 224.937 83.16 224.681 83.192C224.435 83.224 224.206 83.2933 223.993 83.4C223.79 83.496 223.619 83.6347 223.481 83.816C223.342 83.9867 223.273 84.216 223.273 84.504C223.273 85.0373 223.443 85.4107 223.785 85.624C224.126 85.8267 224.59 85.928 225.177 85.928ZM225.049 78.472C225.646 78.472 226.147 78.552 226.553 78.712C226.969 78.8613 227.299 79.08 227.545 79.368C227.801 79.6453 227.982 79.9813 228.089 80.376C228.195 80.76 228.249 81.1867 228.249 81.656V86.856C228.121 86.8773 227.939 86.9093 227.705 86.952C227.481 86.984 227.225 87.016 226.937 87.048C226.649 87.08 226.334 87.1067 225.993 87.128C225.662 87.16 225.331 87.176 225.001 87.176C224.531 87.176 224.099 87.128 223.705 87.032C223.31 86.936 222.969 86.7867 222.681 86.584C222.393 86.3707 222.169 86.0933 222.009 85.752C221.849 85.4107 221.769 85 221.769 84.52C221.769 84.0613 221.859 83.6667 222.041 83.336C222.233 83.0053 222.489 82.7387 222.809 82.536C223.129 82.3333 223.502 82.184 223.929 82.088C224.355 81.992 224.803 81.944 225.273 81.944C225.422 81.944 225.577 81.9547 225.737 81.976C225.897 81.9867 226.046 82.008 226.185 82.04C226.334 82.0613 226.462 82.0827 226.569 82.104C226.675 82.1253 226.75 82.1413 226.793 82.152V81.736C226.793 81.4907 226.766 81.2507 226.713 81.016C226.659 80.7707 226.563 80.5573 226.425 80.376C226.286 80.184 226.094 80.0347 225.849 79.928C225.614 79.8107 225.305 79.752 224.921 79.752C224.43 79.752 223.998 79.7893 223.625 79.864C223.262 79.928 222.99 79.9973 222.809 80.072L222.633 78.84C222.825 78.7547 223.145 78.6747 223.593 78.6C224.041 78.5147 224.526 78.472 225.049 78.472ZM231.6 78.92C231.941 78.8347 232.395 78.744 232.96 78.648C233.525 78.552 234.176 78.504 234.912 78.504C235.573 78.504 236.123 78.6 236.56 78.792C236.997 78.9733 237.344 79.2347 237.6 79.576C237.867 79.9067 238.053 80.3067 238.16 80.776C238.267 81.2453 238.32 81.7627 238.32 82.328V87H236.832V82.648C236.832 82.136 236.795 81.6987 236.72 81.336C236.656 80.9733 236.544 80.68 236.384 80.456C236.224 80.232 236.011 80.072 235.744 79.976C235.477 79.8693 235.147 79.816 234.752 79.816C234.592 79.816 234.427 79.8213 234.256 79.832C234.085 79.8427 233.92 79.8587 233.76 79.88C233.611 79.8907 233.472 79.9067 233.344 79.928C233.227 79.9493 233.141 79.9653 233.088 79.976V87H231.6V78.92ZM243.603 85.928C244.211 85.928 244.659 85.848 244.947 85.688C245.246 85.528 245.395 85.272 245.395 84.92C245.395 84.5573 245.251 84.2693 244.963 84.056C244.675 83.8427 244.201 83.6027 243.539 83.336C243.219 83.208 242.91 83.08 242.611 82.952C242.323 82.8133 242.073 82.6533 241.859 82.472C241.646 82.2907 241.475 82.072 241.347 81.816C241.219 81.56 241.155 81.2453 241.155 80.872C241.155 80.136 241.427 79.5547 241.971 79.128C242.515 78.6907 243.257 78.472 244.195 78.472C244.43 78.472 244.665 78.488 244.899 78.52C245.134 78.5413 245.353 78.5733 245.555 78.616C245.758 78.648 245.934 78.6853 246.083 78.728C246.243 78.7707 246.366 78.808 246.451 78.84L246.179 80.12C246.019 80.0347 245.769 79.9493 245.427 79.864C245.086 79.768 244.675 79.72 244.195 79.72C243.779 79.72 243.417 79.8053 243.107 79.976C242.798 80.136 242.643 80.392 242.643 80.744C242.643 80.9253 242.675 81.0853 242.739 81.224C242.814 81.3627 242.921 81.4907 243.059 81.608C243.209 81.7147 243.39 81.816 243.603 81.912C243.817 82.008 244.073 82.1093 244.371 82.216C244.766 82.3653 245.118 82.5147 245.427 82.664C245.737 82.8027 245.998 82.968 246.211 83.16C246.435 83.352 246.606 83.5867 246.723 83.864C246.841 84.1307 246.899 84.4613 246.899 84.856C246.899 85.624 246.611 86.2053 246.035 86.6C245.47 86.9947 244.659 87.192 243.603 87.192C242.867 87.192 242.291 87.128 241.875 87C241.459 86.8827 241.177 86.792 241.027 86.728L241.299 85.448C241.47 85.512 241.742 85.608 242.115 85.736C242.489 85.864 242.985 85.928 243.603 85.928ZM252.504 85.928C252.856 85.928 253.165 85.9227 253.432 85.912C253.709 85.8907 253.939 85.8587 254.12 85.816V83.336C254.013 83.2827 253.837 83.24 253.592 83.208C253.357 83.1653 253.069 83.144 252.728 83.144C252.504 83.144 252.264 83.16 252.008 83.192C251.763 83.224 251.533 83.2933 251.32 83.4C251.117 83.496 250.947 83.6347 250.808 83.816C250.669 83.9867 250.6 84.216 250.6 84.504C250.6 85.0373 250.771 85.4107 251.112 85.624C251.453 85.8267 251.917 85.928 252.504 85.928ZM252.376 78.472C252.973 78.472 253.475 78.552 253.88 78.712C254.296 78.8613 254.627 79.08 254.872 79.368C255.128 79.6453 255.309 79.9813 255.416 80.376C255.523 80.76 255.576 81.1867 255.576 81.656V86.856C255.448 86.8773 255.267 86.9093 255.032 86.952C254.808 86.984 254.552 87.016 254.264 87.048C253.976 87.08 253.661 87.1067 253.32 87.128C252.989 87.16 252.659 87.176 252.328 87.176C251.859 87.176 251.427 87.128 251.032 87.032C250.637 86.936 250.296 86.7867 250.008 86.584C249.72 86.3707 249.496 86.0933 249.336 85.752C249.176 85.4107 249.096 85 249.096 84.52C249.096 84.0613 249.187 83.6667 249.368 83.336C249.56 83.0053 249.816 82.7387 250.136 82.536C250.456 82.3333 250.829 82.184 251.256 82.088C251.683 81.992 252.131 81.944 252.6 81.944C252.749 81.944 252.904 81.9547 253.064 81.976C253.224 81.9867 253.373 82.008 253.512 82.04C253.661 82.0613 253.789 82.0827 253.896 82.104C254.003 82.1253 254.077 82.1413 254.12 82.152V81.736C254.12 81.4907 254.093 81.2507 254.04 81.016C253.987 80.7707 253.891 80.5573 253.752 80.376C253.613 80.184 253.421 80.0347 253.176 79.928C252.941 79.8107 252.632 79.752 252.248 79.752C251.757 79.752 251.325 79.7893 250.952 79.864C250.589 79.928 250.317 79.9973 250.136 80.072L249.96 78.84C250.152 78.7547 250.472 78.6747 250.92 78.6C251.368 78.5147 251.853 78.472 252.376 78.472ZM262.544 87.192C261.872 87.192 261.28 87.0853 260.768 86.872C260.266 86.6587 259.84 86.36 259.488 85.976C259.146 85.592 258.89 85.1387 258.72 84.616C258.549 84.0827 258.464 83.496 258.464 82.856C258.464 82.216 258.554 81.6293 258.736 81.096C258.928 80.5627 259.194 80.104 259.536 79.72C259.877 79.3253 260.293 79.0213 260.784 78.808C261.285 78.584 261.84 78.472 262.448 78.472C262.821 78.472 263.194 78.504 263.568 78.568C263.941 78.632 264.298 78.7333 264.64 78.872L264.304 80.136C264.08 80.0293 263.818 79.944 263.52 79.88C263.232 79.816 262.922 79.784 262.592 79.784C261.76 79.784 261.12 80.0453 260.672 80.568C260.234 81.0907 260.016 81.8533 260.016 82.856C260.016 83.304 260.064 83.7147 260.16 84.088C260.266 84.4613 260.426 84.7813 260.64 85.048C260.864 85.3147 261.146 85.5227 261.488 85.672C261.829 85.8107 262.245 85.88 262.736 85.88C263.13 85.88 263.488 85.8427 263.808 85.768C264.128 85.6933 264.378 85.6133 264.56 85.528L264.768 86.776C264.682 86.8293 264.56 86.8827 264.4 86.936C264.24 86.9787 264.058 87.016 263.856 87.048C263.653 87.0907 263.434 87.1227 263.2 87.144C262.976 87.176 262.757 87.192 262.544 87.192ZM268.637 78.68H271.789V79.928H268.637V83.768C268.637 84.184 268.669 84.5307 268.733 84.808C268.797 85.0747 268.893 85.288 269.021 85.448C269.149 85.5973 269.309 85.704 269.501 85.768C269.693 85.832 269.917 85.864 270.173 85.864C270.621 85.864 270.978 85.816 271.245 85.72C271.522 85.6133 271.714 85.5387 271.821 85.496L272.109 86.728C271.96 86.8027 271.698 86.8933 271.325 87C270.952 87.1173 270.525 87.176 270.045 87.176C269.48 87.176 269.01 87.1067 268.637 86.968C268.274 86.8187 267.981 86.6 267.757 86.312C267.533 86.024 267.373 85.672 267.277 85.256C267.192 84.8293 267.149 84.3387 267.149 83.784V76.36L268.637 76.104V78.68ZM276.051 87H274.563V78.68H276.051V87ZM275.299 77.176C275.032 77.176 274.803 77.0907 274.611 76.92C274.429 76.7387 274.339 76.4987 274.339 76.2C274.339 75.9013 274.429 75.6667 274.611 75.496C274.803 75.3147 275.032 75.224 275.299 75.224C275.565 75.224 275.789 75.3147 275.971 75.496C276.163 75.6667 276.259 75.9013 276.259 76.2C276.259 76.4987 276.163 76.7387 275.971 76.92C275.789 77.0907 275.565 77.176 275.299 77.176ZM286.833 82.84C286.833 83.5013 286.737 84.0987 286.545 84.632C286.353 85.1653 286.081 85.624 285.729 86.008C285.388 86.392 284.977 86.6907 284.497 86.904C284.017 87.1067 283.495 87.208 282.929 87.208C282.364 87.208 281.841 87.1067 281.361 86.904C280.881 86.6907 280.465 86.392 280.113 86.008C279.772 85.624 279.505 85.1653 279.313 84.632C279.121 84.0987 279.025 83.5013 279.025 82.84C279.025 82.1893 279.121 81.5973 279.313 81.064C279.505 80.52 279.772 80.056 280.113 79.672C280.465 79.288 280.881 78.9947 281.361 78.792C281.841 78.5787 282.364 78.472 282.929 78.472C283.495 78.472 284.017 78.5787 284.497 78.792C284.977 78.9947 285.388 79.288 285.729 79.672C286.081 80.056 286.353 80.52 286.545 81.064C286.737 81.5973 286.833 82.1893 286.833 82.84ZM285.281 82.84C285.281 81.9013 285.068 81.16 284.641 80.616C284.225 80.0613 283.655 79.784 282.929 79.784C282.204 79.784 281.628 80.0613 281.201 80.616C280.785 81.16 280.577 81.9013 280.577 82.84C280.577 83.7787 280.785 84.5253 281.201 85.08C281.628 85.624 282.204 85.896 282.929 85.896C283.655 85.896 284.225 85.624 284.641 85.08C285.068 84.5253 285.281 83.7787 285.281 82.84ZM289.807 78.92C290.148 78.8347 290.602 78.744 291.167 78.648C291.732 78.552 292.383 78.504 293.119 78.504C293.78 78.504 294.33 78.6 294.767 78.792C295.204 78.9733 295.551 79.2347 295.807 79.576C296.074 79.9067 296.26 80.3067 296.367 80.776C296.474 81.2453 296.527 81.7627 296.527 82.328V87H295.039V82.648C295.039 82.136 295.002 81.6987 294.927 81.336C294.863 80.9733 294.751 80.68 294.591 80.456C294.431 80.232 294.218 80.072 293.951 79.976C293.684 79.8693 293.354 79.816 292.959 79.816C292.799 79.816 292.634 79.8213 292.463 79.832C292.292 79.8427 292.127 79.8587 291.967 79.88C291.818 79.8907 291.679 79.9067 291.551 79.928C291.434 79.9493 291.348 79.9653 291.295 79.976V87H289.807V78.92Z" fill="#2C3437" fill-opacity="0.7"/>
<path fill-rule="evenodd" clip-rule="evenodd" d="M82 88C90.8366 88 98 80.8366 98 72C98 63.1634 90.8366 56 82 56C73.1634 56 66 63.1634 66 72C66 80.8366 73.1634 88 82 88Z" fill="#4CBA38"/>
<path fill-rule="evenodd" clip-rule="evenodd" d="M73.8682 72.2678C74.2587 71.8773 74.8919 71.8773 75.2824 72.2678L79.2196 76.205L88.7174 66.7071C89.108 66.3166 89.7411 66.3166 90.1316 66.7071C90.5222 67.0976 90.5222 67.7308 90.1316 68.1213L80.9393 77.3137C80.2631 77.9899 79.2232 78.0807 78.4494 77.5861L78.1108 77.9246L73.8682 73.682C73.4777 73.2915 73.4777 72.6583 73.8682 72.2678Z" fill="white"/>
<defs>
<filter id="filter0_d" x="0" y="0" width="384" height="155" filterUnits="userSpaceOnUse" color-interpolation-filters="sRGB">
<feFlood flood-opacity="0" result="BackgroundImageFix"/>
<feColorMatrix in="SourceAlpha" type="matrix" values="0 0 0 0 0 0 0 0 0 0 0 0 0 0 0 0 0 0 127 0"/>
<feOffset dy="9"/>
<feGaussianBlur stdDeviation="20"/>
<feColorMatrix type="matrix" values="0 0 0 0 0 0 0 0 0 0 0 0 0 0 0 0 0 0 0.15 0"/>
<feBlend mode="normal" in2="BackgroundImageFix" result="effect1_dropShadow"/>
<feBlend mode="normal" in="SourceGraphic" in2="effect1_dropShadow" result="shape"/>
</filter>
</defs>
</svg>
