<svg width="27" height="27" viewBox="0 0 27 27" fill="none" xmlns="http://www.w3.org/2000/svg">
<path d="M13.5 2.25C19.7032 2.25 24.75 7.29675 24.75 13.5C24.75 19.7032 19.7032 24.75 13.5 24.75C7.29675 24.75 2.25 19.7032 2.25 13.5C2.25 7.29675 7.29675 2.25 13.5 2.25ZM13.5 0C6.04463 0 0 6.04463 0 13.5C0 20.9554 6.04463 27 13.5 27C20.9554 27 27 20.9554 27 13.5C27 6.04463 20.9554 0 13.5 0ZM13.5 7.96725C15.3022 7.96725 15.516 7.974 16.2281 8.00663C18.0585 8.08988 18.9113 8.95725 18.9956 10.773C19.0271 11.4851 19.0339 11.6978 19.0339 13.5C19.0339 15.3022 19.0271 15.516 18.9956 16.227C18.9113 18.0416 18.0596 18.9113 16.2281 18.9945C15.516 19.026 15.3034 19.0339 13.5 19.0339C11.6978 19.0339 11.484 19.0271 10.773 18.9945C8.93925 18.9101 8.08988 18.0394 8.0055 16.227C7.974 15.516 7.96612 15.3022 7.96612 13.5C7.96612 11.6978 7.974 11.484 8.0055 10.773C8.08875 8.95613 8.9415 8.08875 10.773 8.0055C11.484 7.97288 11.6978 7.96725 13.5 7.96725V7.96725ZM13.5 6.75C11.6663 6.75 11.4379 6.75788 10.7168 6.79163C8.26425 6.90413 6.903 8.26425 6.7905 10.7168C6.75787 11.4379 6.75 11.6674 6.75 13.5C6.75 15.3337 6.75787 15.5632 6.7905 16.2832C6.903 18.7346 8.26425 20.097 10.7168 20.2095C11.4379 20.2421 11.6663 20.25 13.5 20.25C15.3337 20.25 15.5633 20.2421 16.2844 20.2095C18.7324 20.097 20.0993 18.7369 20.2095 16.2832C20.2421 15.5632 20.25 15.3337 20.25 13.5C20.25 11.6674 20.2421 11.4379 20.2095 10.7168C20.0993 8.26762 18.7369 6.903 16.2844 6.79163C15.5633 6.75788 15.3337 6.75 13.5 6.75V6.75ZM13.5 10.0339C11.5864 10.0339 10.0339 11.5852 10.0339 13.5C10.0339 15.4148 11.5864 16.9661 13.5 16.9661C15.4136 16.9661 16.9661 15.4148 16.9661 13.5C16.9661 11.5864 15.4136 10.0339 13.5 10.0339ZM13.5 15.75C12.2569 15.75 11.25 14.7431 11.25 13.5C11.25 12.258 12.2569 11.25 13.5 11.25C14.742 11.25 15.7511 12.2569 15.7511 13.5C15.7511 14.7431 14.742 15.75 13.5 15.75ZM17.1022 9.08775C16.6556 9.08775 16.2923 9.45 16.2923 9.89775C16.2923 10.3444 16.6545 10.7077 17.1022 10.7077C17.55 10.7077 17.9134 10.3455 17.9134 9.89775C17.9134 9.45 17.5511 9.08775 17.1022 9.08775Z" fill="white"/>
</svg>
