<svg width="97" height="97" viewBox="0 0 97 97" fill="none" xmlns="http://www.w3.org/2000/svg">
<circle cx="48.005" cy="48.005" r="48.005" fill="#52AED4" fill-opacity="0.22"/>
<path opacity="0.4" d="M11.676 47.9027L47.9268 47.9027L47.9268 84.3667L47.9052 84.3667C27.8963 84.3667 11.676 68.0413 11.676 47.9027Z" fill="#51ACD1" fill-opacity="0.8"/>
<path opacity="0.4" d="M25.5366 47.9027L47.9268 47.9027L47.9268 70.2929L47.9135 70.2929C44.9741 70.2921 42.0635 69.7123 39.3481 68.5866C36.6328 67.4609 34.1657 65.8114 32.0878 63.7323C30.0099 61.6532 28.3619 59.1851 27.2378 56.4691C26.1138 53.753 25.5357 50.8422 25.5366 47.9027Z" fill="#51ACD1" fill-opacity="0.8"/>
<path opacity="0.4" d="M34.0662 47.9027L47.9268 47.9027L47.9268 61.7633L47.9185 61.7633C46.0989 61.7628 44.2971 61.4039 42.6162 60.7071C40.9352 60.0102 39.408 58.9891 38.1217 57.702C36.8354 56.4149 35.8152 54.8871 35.1194 53.2057C34.4235 51.5243 34.0656 49.7224 34.0662 47.9027Z" fill="#51ACD1" fill-opacity="0.8"/>
<path opacity="0.4" d="M47.9269 84.1672L47.9269 47.9164L84.3909 47.9164L84.3909 47.9379C84.3909 67.9468 68.0655 84.1672 47.9269 84.1672Z" fill="#51ACD1" fill-opacity="0.8"/>
<path opacity="0.4" d="M47.9267 70.3066L47.9267 47.9164L70.3169 47.9164L70.3169 47.9296C70.3161 50.8691 69.7362 53.7796 68.6106 56.495C67.4849 59.2104 65.8354 61.6774 63.7563 63.7553C61.6772 65.8332 59.2091 67.4813 56.493 68.6053C53.777 69.7294 50.8662 70.3075 47.9267 70.3066Z" fill="#51ABD0" fill-opacity="0.8"/>
<path opacity="0.4" d="M47.9268 61.777L47.9268 47.9164L61.7874 47.9164L61.7874 47.9246C61.7868 49.7443 61.4279 51.546 60.7311 53.227C60.0342 54.9079 59.0131 56.4351 57.726 57.7215C56.439 59.0078 54.9111 60.0279 53.2297 60.7238C51.5484 61.4196 49.7464 61.7775 47.9268 61.777Z" fill="#51ACD1" fill-opacity="0.8"/>
<path d="M66.3701 23.9858C64.6352 21.0364 62.928 18.6404 62.8561 18.5398C62.6142 18.201 62.2235 18 61.8073 18C61.391 18 61.0003 18.201 60.7583 18.5398C60.6865 18.6403 58.9792 21.0364 57.2443 23.9858C54.8018 28.138 53.6145 31.1181 53.6145 33.0964C53.6145 37.6139 57.2898 41.2891 61.8072 41.2891C66.3246 41.2891 69.9999 37.6138 69.9999 33.0964C69.9999 31.1181 68.8126 28.138 66.3701 23.9858Z" fill="#FEB287"/>
<path d="M38.7556 30.8894C37.0207 27.94 35.3135 25.544 35.2416 25.4434C34.9996 25.1046 34.609 24.9036 34.1927 24.9036C33.7764 24.9036 33.3857 25.1046 33.1437 25.4434C33.0719 25.5439 31.3646 27.94 29.6297 30.8894C27.1873 35.0417 26 38.0217 26 40C26 44.5175 29.6753 48.1927 34.1927 48.1927C38.7101 48.1927 42.3854 44.5174 42.3854 40C42.3854 38.0217 41.1981 35.0417 38.7556 30.8894Z" fill="#FFDDC7"/>
<path d="M47.9999 62C39.6758 62 32.9036 55.2278 32.9036 46.9036C32.9036 43.235 35.2862 37.3244 39.9852 29.3361C43.4261 23.4865 46.9161 18.5886 46.9509 18.5398C47.193 18.201 47.5837 18 47.9999 18C48.4162 18 48.8069 18.201 49.0489 18.5398C49.0837 18.5886 52.5737 23.4865 56.0146 29.3361C60.7137 37.3244 63.0962 43.235 63.0962 46.9036C63.0963 55.2278 56.3241 62 47.9999 62Z" fill="#FEB287"/>
<path d="M48 62V18C48.4163 18 48.807 18.201 49.049 18.5398C49.0838 18.5886 52.5738 23.4865 56.0147 29.3361C60.7138 37.3244 63.0963 43.235 63.0963 46.9036C63.0964 55.2278 56.3242 62 48 62Z" fill="#FFDDC7"/>
</svg>
