<svg width="22" height="22" viewBox="0 0 22 22" fill="none" xmlns="http://www.w3.org/2000/svg">
<path d="M20.493 3.1301C19.0927 1.57221 17.4356 0.749146 15.7007 0.749146C13.7661 0.749146 12.0213 1.92844 11.0003 3.87697C9.98154 1.92844 8.24997 0.749146 6.3348 0.749146C4.59956 0.749146 2.98819 1.54951 1.5443 3.12791C-0.148108 4.97929 -1.10347 9.18381 2.22188 12.3281C3.75628 13.7786 10.6826 21.0637 10.7522 21.137C10.8215 21.2096 10.9175 21.2509 11.0175 21.2509H11.0179C11.1179 21.2509 11.2136 21.2099 11.2828 21.1377C11.3528 21.0644 18.2978 13.7954 19.8168 12.3252C23.0784 9.16731 22.1484 4.97161 20.493 3.1301Z" fill="white"/>
</svg>
