<svg width="97" height="97" viewBox="0 0 97 97" fill="none" xmlns="http://www.w3.org/2000/svg">
<circle cx="48.005" cy="48.005" r="48.005" fill="#F57067" fill-opacity="0.2"/>
<circle cx="48.5" cy="48.5" r="35.5" fill="#F57067" fill-opacity="0.2"/>
<path fill-rule="evenodd" clip-rule="evenodd" d="M35.1658 70.2516L43.0269 72.3373V69.6099L43.6686 68.9682H48.1606V72.1768V74.4228H43.3478L37.4118 71.8559L35.1658 70.2516Z" fill="#CDBDB2"/>
<path fill-rule="evenodd" clip-rule="evenodd" d="M60.8342 70.2516L53.1336 72.3373V69.6099L52.4919 68.9682H47.9999V72.1768V74.4228H52.8128L58.7485 71.8559L60.8342 70.2516Z" fill="#CDBDB2"/>
<path fill-rule="evenodd" clip-rule="evenodd" d="M43.6686 64.3159L43.0269 69.6099L43.8289 68.9682H52.1712L53.1337 69.6099L52.492 64.3159L51.2086 63.5136L44.7914 63.6742L43.6686 64.3159Z" fill="#393939"/>
<path fill-rule="evenodd" clip-rule="evenodd" d="M39.3369 28.5402L43.1872 37.5242L44.9521 63.6742H51.2086L53.1338 37.5242L56.6632 28.5402H39.3369Z" fill="#F89C35"/>
<path fill-rule="evenodd" clip-rule="evenodd" d="M22.492 48.273L18 61.2676L29.23 60.6259H36.4492V55.011L36.1283 43.4602L34.524 44.7436L22.492 48.273Z" fill="#F89D35"/>
<path fill-rule="evenodd" clip-rule="evenodd" d="M30.9946 49.7167L44.1498 50.0376L42.7061 56.7756L36.4492 55.1713L30.9946 49.7167Z" fill="#D87C30"/>
<path fill-rule="evenodd" clip-rule="evenodd" d="M30.9946 49.8773L36.4492 55.011V60.1448L30.9946 49.8773Z" fill="#EA8D3A"/>
<path fill-rule="evenodd" clip-rule="evenodd" d="M36.4492 55.1713L42.8664 56.7756L44.9521 63.6742L43.5081 64.4762L36.4492 60.305V55.1713Z" fill="#F89D35"/>
<path fill-rule="evenodd" clip-rule="evenodd" d="M36.4492 60.305L35.1658 70.2516L43.6686 64.3159L36.4492 60.305Z" fill="#EB8F35"/>
<path fill-rule="evenodd" clip-rule="evenodd" d="M44.1497 50.0376L44.952 63.6742L42.5454 56.6955L44.1497 50.0376Z" fill="#EA8E3A"/>
<path fill-rule="evenodd" clip-rule="evenodd" d="M29.0696 60.4656L36.4493 60.305L35.1659 70.2516L29.0696 60.4656Z" fill="#D87C30"/>
<path fill-rule="evenodd" clip-rule="evenodd" d="M21.5294 74.5833L35.1657 70.2516L29.0694 60.4656L18 61.2676L21.5294 74.5833Z" fill="#EB8F35"/>
<path fill-rule="evenodd" clip-rule="evenodd" d="M43.1872 37.5242L36.2889 43.2996L30.9946 49.7167L44.1498 50.1982L43.1872 37.5242Z" fill="#E8821E"/>
<path fill-rule="evenodd" clip-rule="evenodd" d="M35.1658 70.2516L43.6686 64.3159L43.0269 69.4496V72.3373L37.2515 71.2142L35.1658 70.2516Z" fill="#DFCEC3"/>
<path fill-rule="evenodd" clip-rule="evenodd" d="M60.8342 70.2516L52.4919 64.3159L53.1336 69.4496V72.3373L58.9091 71.2142L60.8342 70.2516Z" fill="#DFCEC3"/>
<path fill-rule="evenodd" clip-rule="evenodd" d="M40.6206 52.9253L42.3855 56.6153L36.1286 55.011L40.6206 52.9253Z" fill="#393939"/>
<path fill-rule="evenodd" clip-rule="evenodd" d="M21.3689 21.0001L43.1872 37.5242L39.4975 28.5402L21.3689 21.0001Z" fill="#E88F35"/>
<path fill-rule="evenodd" clip-rule="evenodd" d="M21.3687 21L18.481 29.8236L20.0852 39.4493L18.9622 40.091L20.5665 41.5349L19.2831 42.6579L21.0478 44.2622L19.9248 45.2247L22.4917 48.4333L34.5238 44.7435C40.4062 40.0375 43.2939 37.6311 43.187 37.5242C43.08 37.4172 35.8073 31.9092 21.3687 21Z" fill="#8E5A30"/>
<path fill-rule="evenodd" clip-rule="evenodd" d="M73.508 48.273L78 61.2676L66.77 60.6259H59.5508V55.011L59.8717 43.4602L61.476 44.7436L73.508 48.273Z" fill="#F89D35"/>
<path fill-rule="evenodd" clip-rule="evenodd" d="M65.0054 49.7167L51.8502 50.0376L53.2939 56.7756L59.5508 55.1713L65.0054 49.7167Z" fill="#D87C30"/>
<path fill-rule="evenodd" clip-rule="evenodd" d="M65.0054 49.8773L59.5508 55.011V60.1448L65.0054 49.8773Z" fill="#EA8D3A"/>
<path fill-rule="evenodd" clip-rule="evenodd" d="M59.5508 55.1713L53.1336 56.7756L51.0479 63.6742L52.4919 64.4762L59.5508 60.305V55.1713Z" fill="#F89D35"/>
<path fill-rule="evenodd" clip-rule="evenodd" d="M59.5508 60.305L60.8342 70.2516L52.4919 64.4762L59.5508 60.305Z" fill="#EB8F35"/>
<path fill-rule="evenodd" clip-rule="evenodd" d="M51.8503 50.0376L51.048 63.6742L53.4546 56.6955L51.8503 50.0376Z" fill="#EA8E3A"/>
<path fill-rule="evenodd" clip-rule="evenodd" d="M66.9304 60.4656L59.5507 60.305L60.8341 70.2516L66.9304 60.4656Z" fill="#D87C30"/>
<path fill-rule="evenodd" clip-rule="evenodd" d="M74.4706 74.5833L60.8343 70.2516L66.9306 60.4656L78 61.2676L74.4706 74.5833Z" fill="#EB8F35"/>
<path fill-rule="evenodd" clip-rule="evenodd" d="M52.8128 37.5242L59.7111 43.2996L65.0054 49.7167L51.8502 50.1982L52.8128 37.5242Z" fill="#E8821E"/>
<path fill-rule="evenodd" clip-rule="evenodd" d="M55.3796 52.9253L53.6147 56.6153L59.8716 55.011L55.3796 52.9253Z" fill="#393939"/>
<path fill-rule="evenodd" clip-rule="evenodd" d="M74.6313 21.0001L52.813 37.5242L56.5028 28.5402L74.6313 21.0001Z" fill="#E88F35"/>
<path fill-rule="evenodd" clip-rule="evenodd" d="M74.6313 21L77.519 29.8236L75.9148 39.4493L77.0378 40.091L75.4335 41.5349L76.7169 42.6579L74.9522 44.2622L76.0752 45.2247L73.5083 48.4333L61.4762 44.7435C55.5938 40.0375 52.7061 37.6311 52.813 37.5242C52.92 37.4172 60.1927 31.9092 74.6313 21Z" fill="#8E5A30"/>
</svg>
