<svg width="97" height="97" viewBox="0 0 97 97" fill="none" xmlns="http://www.w3.org/2000/svg">
<circle cx="48.005" cy="48.005" r="48.005" fill="#59BB8B" fill-opacity="0.2"/>
<circle cx="48.5" cy="48.5" r="35.5" fill="#59BB8B" fill-opacity="0.25"/>
<path d="M59.4613 51.7722L52.1658 58.8022C51.8695 59.0901 51.7034 59.4785 51.7034 59.8833C51.7034 60.2881 51.8695 60.6765 52.1658 60.9644L57.7397 66.3294C58.204 66.7583 58.8231 66.9978 59.4673 66.9978C60.1114 66.9978 60.7306 66.7583 61.1948 66.3294L78.2777 50.1419C78.5016 49.9271 78.6792 49.6721 78.8003 49.3913C78.9215 49.1106 78.9839 48.8097 78.9839 48.5058C78.9839 48.2019 78.9215 47.901 78.8003 47.6202C78.6792 47.3395 78.5016 47.0845 78.2777 46.8697L61.1948 30.6706C60.7306 30.2417 60.1114 30.0022 59.4673 30.0022C58.8231 30.0022 58.204 30.2417 57.7397 30.6706L52.1658 36.0356C51.8695 36.3235 51.7034 36.712 51.7034 37.1167C51.7034 37.5215 51.8695 37.9099 52.1658 38.1978L59.4613 45.2278C59.909 45.6574 60.2642 46.1674 60.5065 46.7289C60.7488 47.2904 60.8736 47.8922 60.8736 48.5C60.8736 49.1078 60.7488 49.7096 60.5065 50.2711C60.2642 50.8326 59.909 51.3427 59.4613 51.7722Z" fill="#0F8872"/>
<path d="M37.5269 51.7722L44.8825 58.8022C45.1788 59.0901 45.3449 59.4785 45.3449 59.8833C45.3449 60.2881 45.1788 60.6765 44.8825 60.9644L39.3086 66.3294C38.8443 66.7583 38.2252 66.9978 37.5811 66.9978C36.9369 66.9978 36.3178 66.7583 35.8535 66.3294L18.7706 50.1419C18.5467 49.9271 18.3692 49.6721 18.248 49.3913C18.1268 49.1106 18.0645 48.8097 18.0645 48.5058C18.0645 48.2019 18.1268 47.901 18.248 47.6202C18.3692 47.3395 18.5467 47.0845 18.7706 46.8697L35.7933 30.6706C36.2576 30.2417 36.8767 30.0022 37.5209 30.0022C38.165 30.0022 38.7842 30.2417 39.2484 30.6706L44.8825 36.0356C45.1788 36.3235 45.3449 36.712 45.3449 37.1167C45.3449 37.5215 45.1788 37.9099 44.8825 38.1978L37.5871 45.2278C37.1354 45.6535 36.7755 46.1606 36.528 46.72C36.2804 47.2794 36.1502 47.8802 36.1446 48.488C36.139 49.0958 36.2582 49.6987 36.4954 50.2622C36.7326 50.8258 37.0831 51.3389 37.5269 51.7722Z" fill="#39D78B"/>
<path d="M39.441 49.8413C39.2575 49.6652 39.112 49.4561 39.0127 49.2259C38.9134 48.9958 38.8623 48.7491 38.8623 48.5C38.8623 48.2509 38.9134 48.0042 39.0127 47.7741C39.112 47.5439 39.2575 47.3349 39.441 47.1588L47.0976 39.805C47.2809 39.6288 47.4986 39.489 47.7383 39.3937C47.9779 39.2983 48.2347 39.2492 48.4941 39.2492C48.7535 39.2492 49.0103 39.2983 49.2499 39.3937C49.4895 39.489 49.7072 39.6288 49.8906 39.805L57.5472 47.1588C57.7306 47.3349 57.8762 47.5439 57.9755 47.7741C58.0747 48.0042 58.1259 48.2509 58.1259 48.5C58.1259 48.7491 58.0747 48.9958 57.9755 49.2259C57.8762 49.4561 57.7306 49.6652 57.5472 49.8413L49.8906 57.195C49.7072 57.3712 49.4895 57.511 49.2499 57.6063C49.0103 57.7017 48.7535 57.7508 48.4941 57.7508C48.2347 57.7508 47.9779 57.7017 47.7383 57.6063C47.4986 57.511 47.2809 57.3712 47.0976 57.195L39.441 49.8413Z" fill="#39D78B"/>
</svg>
