<svg width="27" height="27" viewBox="0 0 27 27" fill="none" xmlns="http://www.w3.org/2000/svg">
<path d="M13.5 2.25C19.7032 2.25 24.75 7.29675 24.75 13.5C24.75 19.7032 19.7032 24.75 13.5 24.75C7.29675 24.75 2.25 19.7032 2.25 13.5C2.25 7.29675 7.29675 2.25 13.5 2.25ZM13.5 0C6.04463 0 0 6.04463 0 13.5C0 20.9554 6.04463 27 13.5 27C20.9554 27 27 20.9554 27 13.5C27 6.04463 20.9554 0 13.5 0ZM20.25 13.3751C20.25 12.555 19.5795 11.8867 18.7549 11.8867C18.3521 11.8867 17.9888 12.0476 17.7199 12.3064C16.7018 11.637 15.3236 11.2095 13.7992 11.1555L14.634 8.52975L16.893 9.05963L16.8896 9.09225C16.8896 9.76275 17.4375 10.3095 18.1125 10.3095C18.7864 10.3095 19.3343 9.76387 19.3343 9.09225C19.3343 8.42062 18.7853 7.875 18.1114 7.875C17.5939 7.875 17.1529 8.19788 16.9751 8.65125L14.5406 8.08088C14.4349 8.055 14.3257 8.11688 14.2931 8.22038L13.3628 11.1487C11.7664 11.1679 10.3196 11.5976 9.2565 12.2872C8.98987 12.0409 8.6355 11.8867 8.244 11.8867C7.4205 11.8879 6.75 12.555 6.75 13.3751C6.75 13.9207 7.05037 14.3932 7.49137 14.6531C7.46212 14.8117 7.443 14.9715 7.443 15.1358C7.44188 17.3351 10.1475 19.125 13.4719 19.125C16.7974 19.125 19.5019 17.3351 19.5019 15.1358C19.5019 14.9816 19.485 14.8297 19.4591 14.6801C19.9271 14.4281 20.25 13.941 20.25 13.3751V13.3751ZM10.5615 14.3966C10.5615 13.9084 10.9609 13.5101 11.4514 13.5101C11.9419 13.5101 12.3401 13.9072 12.3401 14.3966C12.3401 14.8849 11.9407 15.282 11.4514 15.282C10.9609 15.2831 10.5615 14.886 10.5615 14.3966V14.3966ZM15.6578 17.0235C15.21 17.469 14.5057 17.6861 13.5067 17.6861L13.4989 17.685L13.491 17.6861C12.492 17.6861 11.7877 17.469 11.34 17.0235C11.2579 16.9425 11.2579 16.8097 11.34 16.7287C11.421 16.6477 11.5549 16.6477 11.6359 16.7287C12.0015 17.0921 12.6079 17.2699 13.491 17.2699L13.4989 17.271L13.5067 17.2699C14.3887 17.2699 14.9962 17.0932 15.3619 16.7287C15.444 16.6477 15.5756 16.6477 15.6578 16.7287C15.7399 16.8097 15.7399 16.9425 15.6578 17.0235V17.0235ZM15.552 15.2831C15.0615 15.2831 14.6633 14.886 14.6633 14.3978C14.6633 13.9095 15.0626 13.5113 15.552 13.5113C16.0425 13.5113 16.4408 13.9084 16.4408 14.3978C16.4408 14.886 16.0425 15.2831 15.552 15.2831V15.2831Z" fill="white"/>
</svg>
