<svg width="27" height="27" viewBox="0 0 27 27" fill="none" xmlns="http://www.w3.org/2000/svg">
<path fill-rule="evenodd" clip-rule="evenodd" d="M13.5 0C6.04463 0 0 6.04463 0 13.5C0 20.9554 6.04463 27 13.5 27C20.9554 27 27 20.9554 27 13.5C27 6.04463 20.9554 0 13.5 0ZM13.5 2.25C19.7032 2.25 24.75 7.29675 24.75 13.5C24.75 19.7032 19.7032 24.75 13.5 24.75C7.29675 24.75 2.25 19.7032 2.25 13.5C2.25 7.29675 7.29675 2.25 13.5 2.25ZM16.5285 19.0001C16.7096 19.1295 16.9425 19.161 17.1506 19.0823C17.3588 19.0035 17.5129 18.8257 17.5579 18.6097C18.0472 16.3125 19.233 10.4974 19.6774 8.40825C19.7111 8.25075 19.656 8.08762 19.5322 7.98187C19.4085 7.87725 19.2364 7.84688 19.0834 7.90313C16.7254 8.77613 9.46125 11.5009 6.49237 12.6C6.30337 12.6697 6.18075 12.8509 6.1875 13.05C6.19425 13.2491 6.32813 13.4213 6.5205 13.4786C7.8525 13.8769 9.60075 14.4315 9.60075 14.4315C9.60075 14.4315 10.4164 16.8986 10.8427 18.153C10.8956 18.3094 11.0194 18.4343 11.1814 18.4759C11.3445 18.5186 11.5166 18.4748 11.6381 18.36C12.3221 17.7143 13.3796 16.7164 13.3796 16.7164C13.3796 16.7164 15.3889 18.189 16.5285 19.0001ZM10.3354 14.1199L11.2804 17.235L11.4896 15.2618C11.4896 15.2618 15.138 11.9711 17.2181 10.0946C17.28 10.0406 17.2879 9.94838 17.2372 9.88313C17.1866 9.819 17.0955 9.80325 17.0257 9.84713C14.6149 11.3861 10.3354 14.1199 10.3354 14.1199Z" fill="white"/>
</svg>
