<svg width="27" height="27" viewBox="0 0 27 27" fill="none" xmlns="http://www.w3.org/2000/svg">
<path d="M13.5 2.25C19.7032 2.25 24.75 7.29675 24.75 13.5C24.75 19.7032 19.7032 24.75 13.5 24.75C7.29675 24.75 2.25 19.7032 2.25 13.5C2.25 7.29675 7.29675 2.25 13.5 2.25ZM13.5 0C6.04463 0 0 6.04463 0 13.5C0 20.9554 6.04463 27 13.5 27C20.9554 27 27 20.9554 27 13.5C27 6.04463 20.9554 0 13.5 0ZM20.8125 9.87525C20.3164 10.0957 19.782 10.2443 19.2218 10.3118C19.7944 9.96863 20.232 9.42637 20.4401 8.7795C19.9046 9.09675 19.3117 9.32738 18.6806 9.45113C18.1766 8.91225 17.4555 8.57588 16.6601 8.57588C14.8714 8.57588 13.5574 10.2442 13.9612 11.9767C11.6606 11.8609 9.61875 10.7584 8.253 9.08325C7.52737 10.3275 7.87725 11.9565 9.11025 12.7811C8.65687 12.7665 8.2305 12.6416 7.857 12.4346C7.82663 13.7171 8.74687 14.9175 10.0789 15.1853C9.68962 15.291 9.26213 15.3157 8.82788 15.2325C9.18 16.3327 10.2049 17.1326 11.4154 17.1551C10.2488 18.0686 8.78288 18.477 7.3125 18.3038C8.53875 19.0901 9.99337 19.548 11.5571 19.548C16.7006 19.548 19.6054 15.2044 19.4299 11.3085C19.9721 10.9193 20.4412 10.431 20.8125 9.87525V9.87525Z" fill="white"/>
</svg>
