<svg width="97" height="97" viewBox="0 0 97 97" fill="none" xmlns="http://www.w3.org/2000/svg">
<path d="M48.0032 96.0064C74.5146 96.0064 96.0064 74.5146 96.0064 48.0032C96.0064 21.4918 74.5146 0 48.0032 0C21.4918 0 0 21.4918 0 48.0032C0 74.5146 21.4918 96.0064 48.0032 96.0064Z" fill="#F8C495" fill-opacity="0.3"/>
<mask id="mask0" mask-type="alpha" maskUnits="userSpaceOnUse" x="0" y="0" width="97" height="97">
<path d="M48.0032 96.0064C74.5146 96.0064 96.0064 74.5146 96.0064 48.0032C96.0064 21.4918 74.5146 0 48.0032 0C21.4918 0 0 21.4918 0 48.0032C0 74.5146 21.4918 96.0064 48.0032 96.0064Z" fill="#F7F7CE"/>
</mask>
<g mask="url(#mask0)">
<path opacity="0.4" d="M0 70V54.8436C10.7621 50.3908 18.3339 39.788 18.3339 27.4167C18.3339 43.8026 31.6173 57.086 48.0032 57.086C64.3891 57.086 77.6984 43.8032 77.6984 27.4173C77.6984 39.7886 85.2443 50.3908 96.0064 54.8436V70H0Z" fill="#66C1A3"/>
<path fill-rule="evenodd" clip-rule="evenodd" d="M0 66.4056V54.8436C9.79422 50.7912 16.9461 41.6453 18.1533 30.7084V66.4056H0Z" fill="#66C1A3"/>
<path fill-rule="evenodd" clip-rule="evenodd" d="M96.0063 66.4056V54.8436C86.2121 50.7912 79.0602 41.6453 77.853 30.7084V66.4056H96.0063Z" fill="#66C1A3"/>
<rect x="15.2141" y="28" width="6" height="72" fill="#7CCDB2"/>
<rect x="96.2141" y="64" width="6" height="96" transform="rotate(90 96.2141 64)" fill="#7CCDB2"/>
<rect x="74.2141" y="28" width="6" height="72" fill="#7CCDB2"/>
<rect x="96.2141" y="70.0026" width="2.53766" height="96" transform="rotate(90 96.2141 70.0026)" fill="#66C1A3"/>
</g>
</svg>
