<svg width="97" height="97" viewBox="0 0 97 97" fill="none" xmlns="http://www.w3.org/2000/svg">
<circle cx="48.005" cy="48.005" r="48.005" fill="#9691FA" fill-opacity="0.3"/>
<mask id="mask0" mask-type="alpha" maskUnits="userSpaceOnUse" x="16" y="13" width="61" height="35">
<rect x="16.187" y="13.1174" width="60.7095" height="34.7853" fill="#C4C4C4"/>
</mask>
<g mask="url(#mask0)">
<path d="M47.9268 37.6842V55.506V37.6842Z" fill="#E4751F"/>
<path d="M47.9268 37.6842V55.506" stroke="#73DAB8" stroke-width="1.5602" stroke-miterlimit="10"/>
<path d="M56.2797 21.8345H56.2796L56.2799 21.8398C56.2955 22.0939 56.2849 23.7279 56.2741 25.4066L56.2733 25.5197C56.2623 27.226 56.2516 28.9474 56.2695 29.2508C56.2681 33.8594 52.5338 37.5978 47.9251 37.5978H47.925H47.925H47.925H47.925H47.925H47.9249H47.9249H47.9249H47.9249H47.9249H47.9248H47.9248H47.9248H47.9248H47.9248H47.9248H47.9247H47.9247H47.9247H47.9247H47.9247H47.9246H47.9246H47.9246H47.9246H47.9246H47.9245H47.9245H47.9245H47.9245H47.9245H47.9245H47.9244H47.9244H47.9244H47.9244H47.9244H47.9244H47.9243H47.9243H47.9243H47.9243H47.9243H47.9243H47.9242H47.9242H47.9242H47.9242H47.9242H47.9242H47.9241H47.9241H47.9241H47.9241H47.9241H47.9241H47.924H47.924H47.924H47.924H47.924H47.924H47.9239H47.9239H47.9239H47.9239H47.9239H47.9239H47.9239H47.9238H47.9238H47.9238H47.9238H47.9238H47.9238H47.9237H47.9237H47.9237H47.9237H47.9237H47.9237H47.9237H47.9236H47.9236H47.9236H47.9236H47.9236H47.9236H47.9235H47.9235H47.9235H47.9235H47.9234H47.9234H47.9234H47.9234H47.9233H47.9233H47.9233H47.9233H47.9232H47.9232H47.9232H47.9232H47.9231H47.9231H47.9231H47.9231H47.923H47.923H47.923H47.923H47.9229H47.9229H47.9229H47.9229H47.9229H47.9228H47.9228H47.9228H47.9228H47.9227H47.9227H47.9227H47.9227H47.9227H47.9226H47.9226H47.9226H47.9226H47.9226H47.9225H47.9225H47.9225H47.9225H47.9225H47.9224H47.9224H47.9224H47.9224H47.9224H47.9224H47.9223H47.9223H47.9223H47.9223H47.9223H47.9222H47.9222H47.9222H47.9222H47.9222H47.9222H47.9221H47.9221H47.9221H47.9221H47.9221H47.9221H47.922H47.922H47.922H47.922H47.922H47.922H47.922H47.9219H47.9219H47.9219H47.9219H47.9219H47.9219H47.9218H47.9218H47.9218H47.9218H47.9218H47.9218H47.9218H47.9217H47.9217H47.9217H47.9217H47.9217H47.9217H47.9217H47.9216H47.9216H47.9216H47.9216H47.9216H47.9215H47.9215H47.9215H47.9215H47.9215H47.9214H47.9214H47.9214H47.9214H47.9214H47.9213H47.9213H47.9213H47.9213H47.9213H47.9212H47.9212H47.9212H47.9212H47.9212H47.9211H47.9211H47.9211H47.9211H47.9211H47.921H47.921H47.921H47.921H47.921H47.921H47.9209H47.9209H47.9209H47.9209H47.9209H47.9208H47.9208H47.9208H47.9208H47.9208H47.9208H47.9208H47.9207H47.9207H47.9207H47.9207H47.9207H47.9207H47.9207H47.9206H47.9206H47.9206H47.9206H47.9206H47.9206H47.9206H47.9205H47.9205H47.9205H47.9205H47.9205H47.9205H47.9204H47.9204H47.9204H47.9204H47.9204H47.9204H47.9203H47.9203H47.9203H47.9203H47.9203H47.9203H47.9202H47.9202H47.9202H47.9202H47.9202H47.9201H47.9201H47.9201H47.9201H47.9201H47.92H47.92H47.92H47.92H47.92H47.9199H47.9199H47.9199H47.9199H47.9199H47.9198H47.9198H47.9198H47.9198H47.9198H47.9197H47.9197H47.9197H47.9197H47.9197H47.9197H47.9196H47.9196H47.9196H47.9196H47.9196H47.9195H47.9195H47.9195H47.9195H47.9195H47.9194H47.9194H47.9194H47.9194H47.9194H47.9194H47.9193H47.9193H47.9193H47.9193H47.9193H47.9193H47.9192H47.9192H47.9192H47.9192H47.9192H47.9192H47.9191H47.9191H47.9191H47.9191H47.9191H47.9191H47.919H47.919H47.919H47.919H47.919H47.919H47.9189H47.9189H47.9189H47.9189H47.9189H47.9189H47.9188H47.9188H47.9188H47.9188H47.9188H47.9188H47.9188H47.9187H47.9187H47.9187H47.9187H47.9187H47.9187H47.9186H47.9186H47.9186H47.9186H47.9186H47.9186H47.9186H47.9185H47.9185H47.9185H47.9185H47.9185H47.9185H47.9184H47.9184H47.9184H47.9184H47.9183H47.9183H47.9183H47.9183H47.9182H47.9182H47.9182H47.9182H47.9181H47.9181H47.9181H47.9181H47.918H47.918H47.918H47.918H47.9179H47.9179H47.9179H47.9179H47.9178H47.9178H47.9178H47.9178H47.9177H47.9177H47.9177H47.9177H47.9177H47.9176H47.9176H47.9176H47.9176H47.9176H47.9175H47.9175H47.9175H47.9175H47.9175H47.9174H47.9174H47.9174H47.9174H47.9174H47.9173H47.9173H47.9173H47.9173H47.9173H47.9172H47.9172H47.9172H47.9172H47.9172H47.9172H47.9171H47.9171H47.9171H47.9171H47.9171H47.9171H47.917H47.917H47.917H47.917H47.917H47.917H47.9169H47.9169H47.9169H47.9169H47.9169H47.9169H47.9168H47.9168H47.9168H47.9168H47.9168H47.9168H47.9167H47.9167H47.9167H47.9167H47.9167H47.9167H47.9167H47.9166H47.9166H47.9166H47.9166H47.9166H47.9166H47.9166H47.9165H47.9165H47.9165H47.9165H47.9165H47.9164H47.9164H47.9164H47.9164H47.9164H47.9164H47.9163H47.9163H47.9163H47.9163H47.9163H47.9162H47.9162H47.9162H47.9162H47.9162H47.9161H47.9161H47.9161H47.9161H47.9161H47.916H47.916H47.916H47.916H47.916H47.9159H47.9159H47.9159H47.9159H47.9159H47.9158H47.9158H47.9158H47.9158H47.9158H47.9158H47.9157H47.9157H47.9157H47.9157H47.9157H47.9157H47.9157H47.9156H47.9156H47.9156H47.9156H47.9156H47.9156H47.9155H47.9155H47.9155H47.9155H47.9155H47.9155H47.9155H47.9154H47.9154H47.9154H47.9154H47.9154H47.9154H47.9153H47.9153H47.9153H47.9153H47.9153H47.9153H47.9152H47.9152H47.9152H47.9152H47.9152H47.9152H47.9151H47.9151H47.9151H47.9151H47.9151H47.9151H47.915H47.915H47.915H47.915H47.915H47.9149H47.9149H47.9149H47.9149H47.9149H47.9148H47.9148C43.3068 37.5978 39.5704 33.8614 39.5704 29.2482L39.5704 29.2472C39.5699 29.2059 39.5693 29.1647 39.5687 29.1234C39.5652 28.8706 39.5616 28.6169 39.5804 28.3567L39.5806 28.3567V28.3505V21.8345C39.5806 21.3271 40.0263 20.935 40.5316 20.997L40.532 20.997C44.2625 21.4378 47.3388 24.4855 47.7812 28.2463L47.7813 28.2467C47.8218 28.5759 47.8421 28.9105 47.8438 29.2503L48.0166 29.2499C48.0166 28.9106 48.0385 28.5762 48.0791 28.2467L48.0792 28.2463C48.5216 24.4854 51.5979 21.4344 55.3283 20.9971L55.3288 20.997C55.8341 20.935 56.2797 21.3271 56.2797 21.8345Z" fill="#73DAB8" stroke="#73DAB8" stroke-width="0.172825"/>
<path d="M48.0046 37.694V28.1529C48.4913 24.3952 51.579 21.3598 55.318 20.9214C55.8744 20.8532 56.3659 21.285 56.3659 21.8447C56.3817 22.1018 56.3712 23.7313 56.3603 25.4017C56.349 27.1579 56.3373 28.9593 56.3557 29.2584C56.3557 33.8892 52.6253 37.6511 48.0046 37.694Z" fill="#66C1A3"/>
<path d="M35.1018 41.0074H35.1017L35.1019 41.01C35.1095 41.1341 35.1043 41.9325 35.099 42.7526L35.0987 42.8078C35.0933 43.6414 35.088 44.4823 35.0968 44.6305C35.0961 46.882 33.2718 48.7083 31.0202 48.7083H31.0202H31.0202H31.0202H31.0202H31.0202H31.0202H31.0202H31.0202H31.0202H31.0201H31.0201H31.0201H31.0201H31.0201H31.0201H31.0201H31.0201H31.0201H31.0201H31.0201H31.02H31.02H31.02H31.02H31.02H31.02H31.02H31.02H31.02H31.02H31.02H31.0199H31.0199H31.0199H31.0199H31.0199H31.0199H31.0199H31.0199H31.0199H31.0199H31.0199H31.0199H31.0198H31.0198H31.0198H31.0198H31.0198H31.0198H31.0198H31.0198H31.0198H31.0198H31.0198H31.0198H31.0198H31.0197H31.0197H31.0197H31.0197H31.0197H31.0197H31.0197H31.0197H31.0197H31.0197H31.0197H31.0196H31.0196H31.0196H31.0196H31.0196H31.0196H31.0196H31.0196H31.0195H31.0195H31.0195H31.0195H31.0195H31.0195H31.0195H31.0194H31.0194H31.0194H31.0194H31.0194H31.0194H31.0194H31.0194H31.0193H31.0193H31.0193H31.0193H31.0193H31.0193H31.0193H31.0193H31.0192H31.0192H31.0192H31.0192H31.0192H31.0192H31.0192H31.0192H31.0192H31.0191H31.0191H31.0191H31.0191H31.0191H31.0191H31.0191H31.0191H31.0191H31.0191H31.019H31.019H31.019H31.019H31.019H31.019H31.019H31.019H31.019H31.019H31.0189H31.0189H31.0189H31.0189H31.0189H31.0189H31.0189H31.0189H31.0189H31.0189H31.0189H31.0189H31.0188H31.0188H31.0188H31.0188H31.0188H31.0188H31.0188H31.0188H31.0188H31.0188H31.0188H31.0188H31.0187H31.0187H31.0187H31.0187H31.0187H31.0187H31.0187H31.0187H31.0187H31.0187H31.0187H31.0186H31.0186H31.0186H31.0186H31.0186H31.0186H31.0186H31.0186H31.0186H31.0186H31.0185H31.0185H31.0185H31.0185H31.0185H31.0185H31.0185H31.0185H31.0185H31.0185H31.0184H31.0184H31.0184H31.0184H31.0184H31.0184H31.0184H31.0184H31.0184H31.0184H31.0183H31.0183H31.0183H31.0183H31.0183H31.0183H31.0183H31.0183H31.0183H31.0183H31.0182H31.0182H31.0182H31.0182H31.0182H31.0182H31.0182H31.0182H31.0182H31.0182H31.0181H31.0181H31.0181H31.0181H31.0181H31.0181H31.0181H31.0181H31.0181H31.0181H31.018H31.018H31.018H31.018H31.018H31.018H31.018H31.018H31.018H31.018H31.018H31.018H31.018H31.0179H31.0179H31.0179H31.0179H31.0179H31.0179H31.0179H31.0179H31.0179H31.0179H31.0179H31.0178H31.0178H31.0178H31.0178H31.0178H31.0178H31.0178H31.0178H31.0178H31.0178H31.0178H31.0177H31.0177H31.0177H31.0177H31.0177H31.0177H31.0177H31.0177H31.0177H31.0177H31.0176H31.0176H31.0176H31.0176H31.0176H31.0176H31.0176H31.0176H31.0176H31.0176H31.0176H31.0175H31.0175H31.0175H31.0175H31.0175H31.0175H31.0175H31.0175H31.0175H31.0175H31.0175H31.0174H31.0174H31.0174H31.0174H31.0174H31.0174H31.0174H31.0174H31.0174H31.0174H31.0174H31.0174H31.0173H31.0173H31.0173H31.0173H31.0173H31.0173H31.0173H31.0173H31.0173H31.0173H31.0173H31.0173H31.0172H31.0172H31.0172H31.0172H31.0172H31.0172H31.0172H31.0172H31.0172H31.0172H31.0172H31.0172H31.0171H31.0171H31.0171H31.0171H31.0171H31.0171H31.0171H31.017H31.017H31.017H31.017H31.017H31.017H31.017H31.017H31.0169H31.0169H31.0169H31.0169H31.0169H31.0169H31.0169H31.0169H31.0168H31.0168H31.0168H31.0168H31.0168H31.0168H31.0168H31.0168H31.0167H31.0167H31.0167H31.0167H31.0167H31.0167H31.0167H31.0167H31.0167H31.0166H31.0166H31.0166H31.0166H31.0166H31.0166H31.0166H31.0166H31.0166H31.0166H31.0165H31.0165H31.0165H31.0165H31.0165H31.0165H31.0165H31.0165H31.0165H31.0165H31.0164H31.0164H31.0164H31.0164H31.0164H31.0164H31.0164H31.0164H31.0164H31.0164H31.0164H31.0164H31.0163H31.0163H31.0163H31.0163H31.0163H31.0163H31.0163H31.0163H31.0163H31.0163H31.0163H31.0163H31.0162H31.0162H31.0162H31.0162H31.0162H31.0162H31.0162H31.0162H31.0162H31.0162H31.0162H31.0161H31.0161H31.0161H31.0161H31.0161H31.0161H31.0161H31.0161H31.0161H31.0161H31.016H31.016H31.016H31.016H31.016H31.016H31.016H31.016H31.016H31.016H31.0159H31.0159H31.0159H31.0159H31.0159H31.0159H31.0159H31.0159H31.0159H31.0159H31.0158H31.0158H31.0158H31.0158H31.0158H31.0158H31.0158H31.0158H31.0158H31.0158H31.0157H31.0157H31.0157H31.0157H31.0157H31.0157H31.0157H31.0157H31.0157H31.0157H31.0156H31.0156H31.0156H31.0156H31.0156H31.0156H31.0156H31.0156H31.0156H31.0156H31.0155H31.0155H31.0155H31.0155H31.0155H31.0155H31.0155H31.0155H31.0155H31.0155H31.0155H31.0155H31.0155H31.0154H31.0154H31.0154H31.0154H31.0154H31.0154H31.0154H31.0154H31.0154H31.0154H31.0154H31.0154H31.0153H31.0153H31.0153H31.0153H31.0153H31.0153H31.0153H31.0153H31.0153H31.0153H31.0152H31.0152C28.7641 48.7083 26.9387 46.883 26.9387 44.6293L26.9387 44.6288C26.9385 44.6086 26.9382 44.5885 26.9379 44.5683C26.9362 44.4448 26.9344 44.3208 26.9436 44.1937L26.9437 44.1938V44.1907V41.0074C26.9437 40.7595 27.1614 40.568 27.4083 40.5983L27.4085 40.5983C29.2309 40.8136 30.7338 42.3025 30.95 44.1398L30.95 44.14C30.9698 44.3008 30.9797 44.4643 30.9805 44.6303L31.065 44.6301C31.065 44.4643 31.0757 44.301 31.0955 44.14L31.0955 44.1398C31.3117 42.3025 32.8146 40.812 34.637 40.5983L34.6372 40.5983C34.8841 40.568 35.1018 40.7595 35.1018 41.0074Z" fill="#73DAB8" stroke="#73DAB8" stroke-width="0.0844311"/>
<path d="M68.1218 43.9651H68.1218L68.1219 43.9672C68.128 44.0672 68.1239 45.4268 68.1196 46.8201L68.1193 46.9151C68.115 48.3341 68.1108 49.7591 68.1178 49.8829C68.1177 50.3389 68.0246 50.5715 67.8719 50.6768C67.7178 50.7832 67.4892 50.7704 67.1887 50.6956C67.0398 50.6586 66.8765 50.6073 66.6999 50.5508C66.6809 50.5447 66.6617 50.5385 66.6424 50.5324C66.4827 50.4812 66.313 50.4268 66.1354 50.3761C65.7372 50.2625 65.2974 50.167 64.8348 50.167H64.8328H64.8307C64.3683 50.167 63.9285 50.2625 63.5304 50.3763C63.3528 50.427 63.1832 50.4814 63.0236 50.5326C63.0042 50.5389 62.985 50.545 62.9659 50.5511C62.7893 50.6077 62.6259 50.659 62.4771 50.6961C62.1765 50.771 61.9479 50.7838 61.7937 50.6774C61.6409 50.5719 61.5477 50.3389 61.5477 49.8819L61.5477 49.8815C61.5471 49.8244 61.5459 49.0166 61.546 48.2076C61.546 47.3974 61.5474 46.59 61.5517 46.5312L61.5518 46.5312V46.5287V43.9651C61.5518 43.7654 61.7271 43.6112 61.9259 43.6356L61.926 43.6356C63.3938 43.809 64.6041 45.0081 64.7782 46.4877L64.7782 46.4879C64.7941 46.6174 64.8021 46.749 64.8028 46.8828L64.8708 46.8826C64.8708 46.7491 64.8794 46.6175 64.8954 46.4879L64.8954 46.4877C65.0695 45.0081 66.2798 43.8077 67.7475 43.6356L67.7477 43.6356C67.9465 43.6112 68.1218 43.7654 68.1218 43.9651ZM61.5178 46.5287C61.509 46.6496 61.5124 49.7671 61.5137 49.8819L61.5178 46.5287Z" fill="#73DAB8" stroke="#73DAB8" stroke-width="0.0679962"/>
<path d="M64.8984 50.1634V46.4345C65.0886 44.966 66.2954 43.7797 67.7566 43.6083C67.9741 43.5817 68.1662 43.7504 68.1662 43.9692C68.1723 44.0696 68.1682 44.7065 68.164 45.3593C68.1595 46.0456 68.155 46.7497 68.1622 46.8666C68.1622 48.6764 66.7043 50.1466 64.8984 50.1634Z" fill="#66C1A3"/>
<path d="M31.0469 48.7668V44.1029C31.2848 42.2661 32.7941 40.7824 34.6217 40.5681C34.8937 40.5347 35.134 40.7458 35.134 41.0194C35.1417 41.1451 35.1365 41.9416 35.1312 42.7581C35.1257 43.6166 35.12 44.4971 35.129 44.6433C35.129 46.9069 33.3055 48.7458 31.0469 48.7668Z" fill="#66C1A3"/>
</g>
<path opacity="0.4" d="M11.676 47.9026L47.9268 47.9026L47.9268 84.3666L47.9052 84.3666C27.8963 84.3666 11.676 68.0412 11.676 47.9026Z" fill="#938CFB"/>
<path opacity="0.4" d="M25.5366 47.9026L47.9268 47.9026L47.9268 70.2928L47.9135 70.2928C44.9741 70.2919 42.0635 69.7121 39.3481 68.5865C36.6328 67.4608 34.1657 65.8113 32.0878 63.7322C30.0099 61.653 28.3619 59.185 27.2378 56.4689C26.1138 53.7529 25.5357 50.8421 25.5366 47.9026Z" fill="#938CFB"/>
<path opacity="0.4" d="M34.0662 47.9026L47.9268 47.9026L47.9268 61.7632L47.9185 61.7632C46.0989 61.7627 44.2971 61.4038 42.6162 60.7069C40.9352 60.0101 39.408 58.9889 38.1217 57.7019C36.8354 56.4148 35.8152 54.8869 35.1194 53.2056C34.4235 51.5242 34.0656 49.7223 34.0662 47.9026Z" fill="#9791FF"/>
<path opacity="0.4" d="M47.9269 84.167L47.9269 47.9162L84.3909 47.9162L84.3909 47.9377C84.3909 67.9467 68.0655 84.167 47.9269 84.167Z" fill="#938CFB"/>
<path opacity="0.4" d="M47.9267 70.3064L47.9267 47.9162L70.3169 47.9162L70.3169 47.9295C70.3161 50.8689 69.7362 53.7795 68.6106 56.4948C67.4849 59.2102 65.8354 61.6773 63.7563 63.7552C61.6772 65.8331 59.2091 67.4811 56.493 68.6052C53.777 69.7292 50.8662 70.3073 47.9267 70.3064Z" fill="#938CFB"/>
<path opacity="0.4" d="M47.9268 61.7768L47.9268 47.9162L61.7874 47.9162L61.7874 47.9245C61.7868 49.7441 61.4279 51.5459 60.7311 53.2268C60.0342 54.9077 59.0131 56.435 57.726 57.7213C56.439 59.0076 54.9111 60.0278 53.2297 60.7236C51.5484 61.4195 49.7464 61.7774 47.9268 61.7768Z" fill="#9791FF"/>
</svg>
